<svg width="27" height="27" viewBox="0 0 27 27" fill="none" xmlns="http://www.w3.org/2000/svg">
<path fill-rule="evenodd" clip-rule="evenodd" d="M13.5 22.75C8.19669 22.75 5.54505 22.75 3.89753 21.1024C2.25 19.455 2.25 16.8032 2.25 11.5C2.25 6.19669 2.25 3.54505 3.89753 1.89753C5.54505 0.25 8.19669 0.25 13.5 0.25C18.8032 0.25 21.455 0.25 23.1024 1.89753C24.75 3.54505 24.75 6.19669 24.75 11.5C24.75 16.8032 24.75 19.455 23.1024 21.1024C21.455 22.75 18.8032 22.75 13.5 22.75ZM13.5 7.28125C13.966 7.28125 14.3437 7.65901 14.3437 8.125V10.6562H16.875C17.341 10.6562 17.7187 11.034 17.7187 11.5C17.7187 11.966 17.341 12.3437 16.875 12.3437H14.3437V14.875C14.3437 15.341 13.966 15.7187 13.5 15.7187C13.034 15.7187 12.6562 15.341 12.6562 14.875V12.3437H10.125C9.65901 12.3437 9.28125 11.966 9.28125 11.5C9.28125 11.034 9.65901 10.6562 10.125 10.6562H12.6562V8.125C12.6562 7.65901 13.034 7.28125 13.5 7.28125Z" fill="#05BF02"/>
</svg>
