<svg width="27" height="27" viewBox="0 0 27 27" fill="none" xmlns="http://www.w3.org/2000/svg">
<path fill-rule="evenodd" clip-rule="evenodd" d="M13.5 24.75C8.19669 24.75 5.54505 24.75 3.89753 23.1024C2.25 21.455 2.25 18.8032 2.25 13.5C2.25 8.19669 2.25 5.54505 3.89753 3.89753C5.54505 2.25 8.19669 2.25 13.5 2.25C18.8032 2.25 21.455 2.25 23.1024 3.89753C24.75 5.54505 24.75 8.19669 24.75 13.5C24.75 18.8032 24.75 21.455 23.1024 23.1024C21.455 24.75 18.8032 24.75 13.5 24.75ZM13.5 9.28125C13.966 9.28125 14.3437 9.65901 14.3437 10.125V12.6562H16.875C17.341 12.6562 17.7187 13.034 17.7187 13.5C17.7187 13.966 17.341 14.3437 16.875 14.3437H14.3437V16.875C14.3437 17.341 13.966 17.7187 13.5 17.7187C13.034 17.7187 12.6562 17.341 12.6562 16.875V14.3437H10.125C9.65901 14.3437 9.28125 13.966 9.28125 13.5C9.28125 13.034 9.65901 12.6562 10.125 12.6562H12.6562V10.125C12.6562 9.65901 13.034 9.28125 13.5 9.28125Z" fill="#05BF02"/>
</svg>
