<svg width="35" height="35" viewBox="0 0 35 35" fill="none" xmlns="http://www.w3.org/2000/svg">
<g clip-path="url(#clip0_31_52)">
<path d="M32.0833 10.2083H17.2448C16.6425 8.51155 15.0259 7.29166 13.125 7.29166C11.2241 7.29166 9.6075 8.51155 9.00521 10.2083H2.91667V13.125H9.00521C9.6075 14.8218 11.2241 16.0417 13.125 16.0417C15.0259 16.0417 16.6425 14.8218 17.2448 13.125H32.0833V10.2083Z" fill="black"/>
<path d="M32.0833 21.875H25.9948C25.3925 20.1782 23.7759 18.9583 21.875 18.9583C19.9741 18.9583 18.3575 20.1782 17.7552 21.875H2.91667V24.7916H17.7552C18.3575 26.4884 19.9741 27.7083 21.875 27.7083C23.7759 27.7083 25.3925 26.4884 25.9948 24.7916H32.0833V21.875Z" fill="black"/>
</g>
<defs>
<clipPath id="clip0_31_52">
<rect width="35" height="35" fill="white"/>
</clipPath>
</defs>
</svg>
