<svg width="37" height="37" viewBox="0 0 37 37" fill="none" xmlns="http://www.w3.org/2000/svg">
<path d="M27.099 6.83194L24.0156 5.21388C21.3091 3.79353 19.9558 3.08334 18.5 3.08334C17.0442 3.08334 15.691 3.79353 12.9844 5.21388L12.4884 5.47416L26.2447 13.3349L32.4372 10.2387C31.4409 9.11047 29.8336 8.26695 27.099 6.83194Z" fill="#8E8E8E"/>
<path d="M33.5288 12.2784L27.3646 15.3604V20.0417C27.3646 20.6802 26.8469 21.1979 26.2083 21.1979C25.5698 21.1979 25.0521 20.6802 25.0521 20.0417V16.5166L19.6562 19.2146V33.7687C20.763 33.493 22.0224 32.8321 24.0156 31.7861L27.099 30.1681C30.4162 28.4272 32.0747 27.557 32.9957 25.993C33.9167 24.4289 33.9167 22.4826 33.9167 18.5902V18.4098C33.9167 15.492 33.9167 13.6677 33.5288 12.2784Z" fill="#8E8E8E"/>
<path d="M17.3437 33.7687V19.2146L3.47126 12.2784C3.08331 13.6677 3.08331 15.492 3.08331 18.4098V18.5902C3.08331 22.4826 3.08331 24.4289 4.0043 25.993C4.92528 27.557 6.58385 28.4272 9.90099 30.1681L12.9843 31.7861C14.9776 32.8321 16.237 33.493 17.3437 33.7687Z" fill="#8E8E8E"/>
<path d="M4.56287 10.2387L18.5 17.2073L23.7589 14.5778L10.0587 6.74918L9.90104 6.83192C7.16652 8.26693 5.55911 9.11045 4.56287 10.2387Z" fill="#8E8E8E"/>
</svg>
