<svg width="37" height="37" viewBox="0 0 37 37" fill="none" xmlns="http://www.w3.org/2000/svg">
<path d="M11.1617 3.08334H8.23254C4.85629 3.08334 3.08337 4.85626 3.08337 8.21709V11.1463C3.08337 14.5071 4.85629 16.28 8.21712 16.28H11.1463C14.5071 16.28 16.28 14.5071 16.28 11.1463V8.21709C16.2955 4.85626 14.5225 3.08334 11.1617 3.08334Z" fill="#8E8E8E"/>
<path opacity="0.4" d="M28.7822 3.08334H25.853C22.4922 3.08334 20.7192 4.85626 20.7192 8.21709V11.1463C20.7192 14.5071 22.4922 16.28 25.853 16.28H28.7822C32.143 16.28 33.9159 14.5071 33.9159 11.1463V8.21709C33.9159 4.85626 32.143 3.08334 28.7822 3.08334Z" fill="#8E8E8E"/>
<path d="M28.7822 20.7049H25.853C22.4922 20.7049 20.7192 22.4778 20.7192 25.8386V28.7678C20.7192 32.1286 22.4922 33.9016 25.853 33.9016H28.7822C32.143 33.9016 33.9159 32.1286 33.9159 28.7678V25.8386C33.9159 22.4778 32.143 20.7049 28.7822 20.7049Z" fill="#8E8E8E"/>
<path opacity="0.4" d="M11.1617 20.7049H8.23254C4.85629 20.7049 3.08337 22.4778 3.08337 25.8386V28.7678C3.08337 32.1441 4.85629 33.917 8.21712 33.917H11.1463C14.5071 33.917 16.28 32.1441 16.28 28.7832V25.8541C16.2955 22.4778 14.5225 20.7049 11.1617 20.7049Z" fill="#8E8E8E"/>
</svg>
