<svg width="365" height="115" viewBox="0 0 365 115" fill="none" xmlns="http://www.w3.org/2000/svg">
<path d="M0.3159 82.636C14.33 82.636 14.33 16.728 28.3442 16.728C42.3584 16.728 42.3584 31.7071 56.3726 31.7071C70.3867 31.7071 70.3867 70.6527 84.4008 70.6527C98.4151 70.6527 98.4151 25.7155 112.429 25.7155C126.444 25.7155 126.444 76.6443 140.457 76.6443C154.471 76.6443 154.471 46.6862 168.486 46.6862C182.5 46.6862 182.5 34.7029 196.514 34.7029C210.529 34.7029 210.529 91.6234 224.543 91.6234C238.556 91.6234 238.556 112.594 252.571 112.594C266.585 112.594 266.585 1.74895 280.599 1.74895C294.613 1.74895 294.614 61.6653 308.628 61.6653C322.641 61.6653 322.641 97.6151 336.656 97.6151C350.67 97.6151 350.67 19.7239 364.684 19.7239" stroke="#FF6624" stroke-width="3"/>
</svg>
