<svg width="34" height="34" viewBox="0 0 34 34" fill="none" xmlns="http://www.w3.org/2000/svg">
<path d="M6.375 11.6875H27.625L29.75 29.75H4.25L6.375 11.6875ZM10.625 19.125H12.75V14.875H10.625V19.125ZM21.25 19.125H23.375V14.875H21.25V19.125ZM12.75 9.5625H10.625C10.625 7.87175 11.2966 6.25024 12.4922 5.05469C13.6877 3.85915 15.3092 3.1875 17 3.1875C18.6908 3.1875 20.3123 3.85915 21.5078 5.05469C22.7034 6.25024 23.375 7.87175 23.375 9.5625H21.25C21.25 8.43533 20.8022 7.35433 20.0052 6.5573C19.2082 5.76027 18.1272 5.3125 17 5.3125C15.8728 5.3125 14.7918 5.76027 13.9948 6.5573C13.1978 7.35433 12.75 8.43533 12.75 9.5625Z" fill="#6D8743"/>
</svg>
