<svg width="26" height="26" viewBox="0 0 26 26" fill="none" xmlns="http://www.w3.org/2000/svg">
<g clip-path="url(#clip0_250_329)">
<path d="M23.9628 9.20247C22.4992 3.76235 18.0547 0 13 0C7.96059 0 3.49929 3.76847 2.03718 9.20247C0.894706 9.32788 0 10.2914 0 11.4706V17.5882C0 18.5441 0.584235 19.3624 1.41318 19.7065C1.70988 22.3784 3.95659 24.4706 6.70647 24.4706H10.8466C11.1632 25.3592 12.0044 26 13 26H17.5882C18.8531 26 19.8824 24.9707 19.8824 23.7059C19.8824 22.4411 18.8531 21.4118 17.5882 21.4118H13C12.0044 21.4118 11.1632 22.0526 10.8466 22.9412H6.70647C4.85894 22.9412 3.31576 21.6259 2.96094 19.8824H4.58824V18.3529H6.11765V10.7059H4.58824V9.17647H3.66141C5.05777 4.64788 8.788 1.52941 13 1.52941C17.2242 1.52941 20.9422 4.64482 22.3386 9.17647H21.4118V10.7059H19.8824V18.3529H21.4118V19.8824H23.7151C24.9753 19.8824 26 18.8531 26 17.5882V11.4706C26 10.2914 25.1053 9.32788 23.9628 9.20247ZM13 22.9412H17.5882C18.0088 22.9412 18.3529 23.2838 18.3529 23.7059C18.3529 24.128 18.0088 24.4706 17.5882 24.4706H13C12.5794 24.4706 12.2353 24.128 12.2353 23.7059C12.2353 23.2838 12.5794 22.9412 13 22.9412ZM3.05882 18.3529H2.28494C1.86894 18.3529 1.52941 18.0104 1.52941 17.5882V11.4706C1.52941 11.0485 1.86894 10.7059 2.28494 10.7059H3.05882V18.3529ZM24.4706 17.5882C24.4706 18.0104 24.1311 18.3529 23.7151 18.3529H22.9412V10.7059H23.7151C24.1311 10.7059 24.4706 11.0485 24.4706 11.4706V17.5882Z" fill="black"/>
</g>
<defs>
<clipPath id="clip0_250_329">
<rect width="26" height="26" fill="white"/>
</clipPath>
</defs>
</svg>
