<svg width="37" height="37" viewBox="0 0 37 37" fill="none" xmlns="http://www.w3.org/2000/svg">
<path d="M14.0965 32.0391V27.311C14.0965 26.1129 15.0708 25.1395 16.2775 25.132H20.7086C21.9207 25.132 22.9034 26.1076 22.9034 27.311V32.0254C22.9033 33.0646 23.7478 33.9091 24.7945 33.9167H27.8175C29.2294 33.9203 30.5847 33.366 31.5843 32.3761C32.584 31.3862 33.1458 30.0421 33.1458 28.6404V15.2099C33.1458 14.0776 32.6402 13.0035 31.7654 12.2771L21.4954 4.12284C19.7002 2.69657 17.1362 2.74265 15.3941 4.23248L5.34494 12.2771C4.42877 12.9821 3.88119 14.0593 3.85413 15.2099V28.6267C3.85413 31.5482 6.23967 33.9167 9.18239 33.9167H12.1364C12.6404 33.9203 13.1249 33.7241 13.4826 33.3716C13.8402 33.0191 14.0413 32.5394 14.0413 32.0391H14.0965Z" fill="#FF6624"/>
</svg>
