<svg width="37" height="37" viewBox="0 0 37 37" fill="none" xmlns="http://www.w3.org/2000/svg">
<path d="M14.0966 32.0391V27.311C14.0966 26.1129 15.0708 25.1395 16.2776 25.132H20.7086C21.9208 25.132 22.9034 26.1076 22.9034 27.311V32.0254C22.9034 33.0646 23.7479 33.9091 24.7945 33.9167H27.8176C29.2294 33.9203 30.5847 33.366 31.5844 32.3761C32.584 31.3862 33.1458 30.0421 33.1458 28.6404V15.2099C33.1458 14.0776 32.6403 13.0035 31.7654 12.2771L21.4954 4.12284C19.7002 2.69657 17.1362 2.74265 15.3941 4.23248L5.34497 12.2771C4.42881 12.9821 3.88122 14.0593 3.85416 15.2099V28.6267C3.85416 31.5482 6.23971 33.9167 9.18243 33.9167H12.1364C12.6404 33.9203 13.125 33.7241 13.4826 33.3716C13.8402 33.0191 14.0414 32.5394 14.0414 32.0391H14.0966Z" fill="#8E8E8E"/>
</svg>
