<svg width="27" height="27" viewBox="0 0 27 27" fill="none" xmlns="http://www.w3.org/2000/svg">
<path fill-rule="evenodd" clip-rule="evenodd" d="M13.1705 4.8295C13.6098 5.26885 13.6098 5.98115 13.1705 6.4205L7.21599 12.375H22.5C23.1213 12.375 23.625 12.8787 23.625 13.5C23.625 14.1213 23.1213 14.625 22.5 14.625H7.21599L13.1705 20.5795C13.6098 21.0188 13.6098 21.7312 13.1705 22.1705C12.7312 22.6098 12.0188 22.6098 11.5795 22.1705L3.7045 14.2955C3.49353 14.0845 3.375 13.7984 3.375 13.5C3.375 13.2016 3.49353 12.9155 3.7045 12.7045L11.5795 4.8295C12.0188 4.39017 12.7312 4.39017 13.1705 4.8295Z" fill="black"/>
</svg>
