<svg width="21" height="15" viewBox="0 0 21 15" fill="none" xmlns="http://www.w3.org/2000/svg">
<path opacity="0.3" d="M20.8005 7.40916C20.7701 7.33712 20.0339 5.62361 18.3972 3.90646C16.2164 1.61845 13.462 0.409241 10.4302 0.409241C7.39851 0.409241 4.64406 1.61845 2.46327 3.90646C0.826588 5.62361 0.0869104 7.33985 0.0599656 7.40916C0.020429 7.50246 0 7.60343 0 7.70553C0 7.80764 0.020429 7.90861 0.0599656 8.00191C0.0903871 8.07395 0.826588 9.78654 2.46327 11.5037C4.64406 13.7908 7.39851 15 10.4302 15C13.462 15 16.2164 13.7908 18.3972 11.5037C20.0339 9.78654 20.7701 8.07395 20.8005 8.00191C20.84 7.90861 20.8605 7.80764 20.8605 7.70553C20.8605 7.60343 20.84 7.50246 20.8005 7.40916ZM10.4302 11.3523C9.7426 11.3523 9.0704 11.1384 8.49866 10.7376C7.92691 10.3368 7.48128 9.76706 7.21814 9.10053C6.95499 8.434 6.88614 7.70057 7.02029 6.99299C7.15444 6.28541 7.48557 5.63545 7.9718 5.12531C8.45803 4.61518 9.07753 4.26777 9.75195 4.12702C10.4264 3.98627 11.1254 4.05851 11.7607 4.33459C12.396 4.61068 12.939 5.07821 13.321 5.67807C13.7031 6.27793 13.907 6.98318 13.907 7.70462C13.907 8.67205 13.5407 9.59985 12.8887 10.2839C12.2366 10.968 11.3523 11.3523 10.4302 11.3523Z" fill="black"/>
</svg>
