<svg width="38" height="5" viewBox="0 0 38 5" fill="none" xmlns="http://www.w3.org/2000/svg">
<path d="M0.255737 1.10479V3.33786C0.255737 3.51621 0.310409 3.68103 0.403166 3.81817C0.500837 3.9627 0.641504 4.07647 0.806747 4.14043C0.857118 4.16011 0.909956 4.17549 0.964013 4.18471C0.980599 4.18779 0.997171 4.19025 1.01376 4.19209C1.02727 4.19394 1.04017 4.19517 1.05368 4.19578C1.06044 4.1964 1.0672 4.19701 1.07396 4.19763C1.08748 4.19824 1.10099 4.19824 1.11574 4.19824H36.6405C37.0987 4.19824 37.4759 3.83478 37.4993 3.38214C37.4999 3.36738 37.5005 3.35262 37.5005 3.33786V1.10479C37.5005 1.09003 37.4999 1.07589 37.4993 1.06051C37.4759 0.607872 37.0987 0.244408 36.6405 0.244408H1.11574C1.10038 0.244408 1.08502 0.245021 1.06967 0.246251C1.03404 0.248096 0.998413 0.252401 0.964013 0.258551C0.909956 0.267776 0.857118 0.282538 0.806747 0.302833C0.780947 0.312673 0.755766 0.323742 0.731809 0.336042C0.717066 0.343422 0.702313 0.350801 0.688185 0.359411L0.683266 0.362486C0.668523 0.371096 0.654409 0.380323 0.639666 0.389548L0.632899 0.394467C0.619385 0.403077 0.60648 0.412302 0.594194 0.422142C0.564094 0.445512 0.535232 0.470113 0.508818 0.497173C0.500218 0.505168 0.492242 0.513776 0.484871 0.522386L0.479952 0.527308C0.475037 0.532228 0.470109 0.537763 0.465194 0.543298L0.462747 0.546373C0.454147 0.556828 0.445537 0.567281 0.437551 0.577736C0.42588 0.593111 0.414223 0.608486 0.403166 0.624476C0.310409 0.762236 0.255737 0.927057 0.255737 1.10479Z" fill="#90E9F9"/>
</svg>
