<svg width="43" height="37" viewBox="0 0 43 37" fill="none" xmlns="http://www.w3.org/2000/svg">
<path d="M18.3545 35.1024L0.878029 35.4406L0.707852 32.5114C0.63291 30.5858 1.20912 27.747 2.37504 24.3023C3.26022 21.6855 4.17919 19.6277 4.18841 19.6074C6.06566 15.3037 8.45524 11.6549 11.2932 8.75823C13.56 6.44398 16.1172 4.60205 18.8932 3.28288C21.905 1.85116 24.5317 1.35239 26.0521 1.17958C26.85 1.08856 27.6584 1.19618 28.4048 1.49323L38.5761 5.54608C39.1062 5.75764 39.0798 6.51717 38.5362 6.69183C33.59 8.28652 29.4718 10.5682 26.2683 13.4919C23.2663 16.2323 21.0579 19.5386 19.7053 23.3171C18.5031 26.6769 18.2144 29.7955 18.1837 31.8201C18.1597 33.3914 18.2801 34.5482 18.3545 35.1024ZM0.288315 36.0784L19.0916 35.7143L19.0253 35.3521C19.0154 35.2973 18.0498 29.7777 20.3042 23.5022C21.6249 19.8251 23.778 16.6093 26.7038 13.9427C30.3692 10.6014 35.2676 8.11493 41.263 6.5516L42.1869 6.31053L27.5104 0.4631L27.4539 0.461876C27.2954 0.458187 23.5157 0.400986 18.6567 2.7017C15.8089 4.0504 13.1865 5.93414 10.8632 8.3019C7.96443 11.2564 5.52631 14.9746 3.6165 19.3541C3.46538 19.6905 -0.106057 27.7181 0.0825289 32.5384V32.5446L0.288315 36.0784Z" fill="#D0301A"/>
</svg>
