<svg width="9" height="9" viewBox="0 0 9 9" fill="none" xmlns="http://www.w3.org/2000/svg">
<path d="M0.348589 4.10675C0.349203 4.11597 0.349208 4.12459 0.350436 4.1332L0.479436 5.54954C0.481279 5.57414 0.48497 5.59874 0.490498 5.62272C0.521213 5.76479 0.599832 5.88471 0.704874 5.96097C0.711632 5.96651 0.719003 5.97143 0.726374 5.97573C0.744189 5.98803 0.762627 5.99849 0.782284 6.00771C0.853541 6.04215 0.932774 6.05814 1.01509 6.05076L1.0716 6.04523L2.71359 5.89578C2.54527 5.98865 2.43595 6.18668 2.44577 6.40685C2.44639 6.41607 2.44637 6.42468 2.4476 6.43391L2.576 7.84964C2.57846 7.87485 2.58275 7.89884 2.58766 7.92221C2.62636 8.10425 2.7443 8.24939 2.8948 8.31396L6.78508 7.97633L6.84221 7.97141C7.07687 7.95111 7.2587 7.74448 7.2802 7.4911C7.28205 7.48003 7.28265 7.46834 7.28265 7.45727C7.28388 7.43329 7.28327 7.40869 7.28143 7.38347L7.15917 5.96712C7.15855 5.95851 7.15733 5.94991 7.1561 5.94068C7.12723 5.72174 6.9841 5.54585 6.80288 5.48496L8.4455 5.34228L8.50201 5.33736C8.73728 5.31768 8.91788 5.11104 8.94 4.85705C8.94184 4.84598 8.94245 4.83491 8.94307 4.82384C8.9443 4.79924 8.94368 4.77464 8.94122 4.74942L8.81899 3.33308C8.81837 3.32447 8.81715 3.31586 8.81592 3.30663C8.81469 3.29802 8.81406 3.28941 8.81222 3.2808C8.76431 3.00774 8.53642 2.80787 8.28456 2.8294L8.2262 2.83431L7.84287 2.86752C7.9989 2.78327 8.10579 2.60677 8.11316 2.40505C8.11377 2.38045 8.11315 2.35584 8.11131 2.33063L7.98845 0.914283C7.98661 0.897063 7.98417 0.87923 7.98171 0.861395C7.94485 0.652295 7.80357 0.487474 7.62727 0.43028L7.59042 0.43397L1.23746 1.01084C1.23008 1.01145 1.22212 1.01268 1.21413 1.0133L1.21106 1.01391L1.1791 1.01637C0.927855 1.03913 0.738655 1.27529 0.739884 1.55327C0.740498 1.57049 0.741113 1.58832 0.742955 1.60616L0.870732 3.0225C0.873189 3.04772 0.876275 3.07109 0.882417 3.09507C0.914975 3.24821 1.00466 3.37613 1.12199 3.45116L1.12259 3.45177C1.1404 3.46346 1.15946 3.47391 1.1785 3.48252L1.1791 3.48314C1.19568 3.49052 1.21229 3.49729 1.22949 3.50282L0.84616 3.53787L0.787803 3.54341C0.679074 3.55386 0.582013 3.60306 0.506455 3.67871C0.402641 3.78387 0.340603 3.93885 0.348589 4.10675Z" fill="#19BBDC"/>
</svg>
