<svg width="5" height="7" viewBox="0 0 5 7" fill="none" xmlns="http://www.w3.org/2000/svg">
<path d="M3.37379 3.64858L4.99181 5.69038L4.96232 6.18423C4.86587 6.20206 4.7375 6.21682 4.57594 6.22851C4.41438 6.24019 4.2688 6.24573 4.13857 6.24573C3.97395 6.24573 3.81546 6.24019 3.6625 6.22851C3.50955 6.21682 3.37931 6.20206 3.27181 6.18423L1.71704 3.71008L1.74653 3.21685L3.15265 1.27776C3.3228 1.255 3.47022 1.24024 3.59431 1.23348C3.71901 1.22671 3.84678 1.22302 3.97701 1.22302C4.03906 1.22302 4.10968 1.22425 4.18954 1.22671C4.26878 1.22856 4.34618 1.23347 4.42297 1.24024C4.49914 1.247 4.7854 0.777147 4.85604 0.784527C4.86341 0.946272 4.8364 1.13754 4.82657 1.27776L3.37379 3.64858ZM0.0947266 1.27776C0.247684 1.25992 0.386507 1.24578 0.510593 1.23655C0.635293 1.22794 0.745865 1.22302 0.842307 1.22302C0.944279 1.22302 1.05854 1.22794 1.18631 1.23655C1.31346 1.24578 1.45107 1.25992 1.5985 1.27776V6.18423C1.29812 6.22543 1.0487 6.24573 0.850898 6.24573C0.640812 6.24573 0.388969 6.22543 0.0947266 6.18423V1.27776Z" fill="#303876"/>
</svg>
