<svg width="13" height="5" viewBox="0 0 13 5" fill="none" xmlns="http://www.w3.org/2000/svg">
<path d="M0.429504 4.38599L0.675843 4.36446L2.29326 4.22424L2.54941 4.2021L2.5789 4.19903L2.83566 4.17689L4.24729 4.0545L4.45308 4.03605L4.70923 4.01391L4.78234 4.00776L10.7673 3.48809L10.8029 3.48501L12.4456 3.34233L12.5021 3.33741C12.7373 3.31773 12.9179 3.11109 12.9401 2.8571C12.9419 2.84603 12.9425 2.83496 12.9431 2.82389C12.9444 2.79929 12.9437 2.77469 12.9413 2.74947L12.819 1.33313C12.8184 1.32452 12.8172 1.31591 12.816 1.30668C12.8147 1.29807 12.8141 1.28946 12.8123 1.28085C12.7644 1.00779 12.5365 0.807917 12.2846 0.829442L12.2263 0.834361L11.8429 0.867571L11.8423 0.868186L11.8055 0.870646L9.98105 1.02932L5.12265 1.45182L4.49178 1.50656L4.23623 1.5287L4.02984 1.54653L3.87565 1.55945L3.6195 1.58159L2.33194 1.69413L2.07579 1.71627L1.71643 1.74764H1.71583L1.69493 1.74887C1.69309 1.76117 1.69124 1.77285 1.69001 1.78577V1.78638C1.58129 2.52377 1.27969 3.53667 0.470057 4.34478V4.3454H0.469433C0.456533 4.35954 0.443019 4.37307 0.429504 4.38599Z" fill="#19BBDC"/>
</svg>
