<svg width="6" height="6" viewBox="0 0 6 6" fill="none" xmlns="http://www.w3.org/2000/svg">
<path d="M0.496094 0.277759C0.620794 0.259923 0.733827 0.245777 0.835799 0.236552C0.93777 0.227942 1.0373 0.223021 1.13313 0.223021C1.2351 0.223021 1.34136 0.228555 1.45193 0.24024C1.5625 0.251925 1.65711 0.264228 1.73635 0.277759L3.70758 2.97146V0.277759C3.8544 0.259923 3.9877 0.245777 4.10687 0.236552C4.22543 0.227942 4.33293 0.223021 4.42937 0.223021C4.52581 0.223021 4.62779 0.227942 4.73529 0.236552C4.84279 0.245777 4.95644 0.259923 5.07499 0.277759L5.06638 5.18423C5.00987 5.19776 4.92757 5.21129 4.82007 5.22543C4.71257 5.23896 4.59647 5.24573 4.47177 5.24573C4.33048 5.24573 4.20269 5.23773 4.08967 5.22174C3.97602 5.20575 3.89434 5.19345 3.84335 5.18423L1.86413 2.50406V5.18423C1.61473 5.22543 1.38804 5.24573 1.18409 5.24573C0.980151 5.24573 0.751022 5.22543 0.496094 5.18423V0.277759Z" fill="#303876"/>
</svg>
