<svg width="48" height="30" viewBox="0 0 48 30" fill="none" xmlns="http://www.w3.org/2000/svg">
<path d="M9.1319 15.3608L13.3809 15.3965L11.7365 8.75328L6.95978 8.52634L9.1319 15.3608ZM13.3293 28.5649L16.5832 28.3287L15.4038 23.5643L11.7838 23.7033L13.3293 28.5649ZM45.54 22.4087L42.1491 22.5385L42.4028 26.453L45.3539 26.2383L45.54 22.4087ZM41.3463 10.1586L41.7013 15.637L45.8674 15.672L46.1242 10.3855L41.3463 10.1586ZM18.6748 15.442L17.1686 9.01097L12.7494 8.80125L14.384 15.4051L18.6748 15.442ZM24.3306 16.4623L19.9028 16.4248L21.2948 22.3651L25.3969 22.2076L24.3306 16.4623ZM31.8684 21.9592L35.7047 21.8122L35.3091 16.5558L31.0466 16.5195L31.8684 21.9592ZM30.0624 16.5109L25.3202 16.4709L26.378 22.1701L30.8911 21.9967L30.0624 16.5109ZM18.1773 9.05894L19.6749 15.45L24.1493 15.4881L22.9988 9.28772L18.1773 9.05894ZM23.9958 9.33507L25.1396 15.4961L29.9156 15.5367L29.0145 9.57369L23.9958 9.33507ZM30.0041 9.62043L30.8997 15.5453L35.2354 15.5822L34.8035 9.84798L30.0041 9.62043ZM35.7814 9.89472L36.2102 15.5902L40.7271 15.6284L40.3695 10.1124L35.7814 9.89472ZM40.7903 16.6019L36.2839 16.5638L36.6765 21.7753L41.1147 21.6049L40.7903 16.6019ZM45.8201 16.6443L41.7646 16.6105L42.0859 21.5674L45.5873 21.4334L45.8201 16.6443ZM41.4341 26.5237L41.1779 22.576L36.7496 22.7458L37.0579 26.841L41.4341 26.5237ZM36.0886 26.9118L35.7778 22.7827L32.0147 22.9272L32.6541 27.1615L36.0886 26.9118ZM31.6823 27.2316L31.0379 22.9647L26.5573 23.1369L27.3756 27.5446L31.6823 27.2316ZM26.4007 27.6153L25.5763 23.1744L21.5202 23.33L22.5891 27.8927L26.4007 27.6153ZM21.608 27.9634L20.5312 23.3675L16.3952 23.5262L17.5666 28.2574L21.608 27.9634ZM16.1563 22.5619L20.3051 22.4032L18.9027 16.4162L14.6254 16.3799L16.1563 22.5619ZM11.4785 22.7415L15.1648 22.6L13.6223 16.3719L9.44212 16.3362L11.4785 22.7415ZM0.260994 0.818548C0.471694 0.591614 0.826136 0.578085 1.05342 0.78903L5.83686 5.23302C5.9075 5.29882 5.96034 5.38185 5.98921 5.4741L6.59735 7.38552L46.7379 9.29079C46.8865 9.29817 47.0266 9.36398 47.1261 9.47406C47.2262 9.58476 47.2784 9.7299 47.271 9.87873L46.4491 26.7894C46.4356 27.0729 46.2126 27.3017 45.9301 27.322L12.9699 29.7168C12.9558 29.7174 12.9423 29.718 12.9288 29.718C12.6868 29.718 12.4693 29.5612 12.395 29.3269L5.65073 8.11061C5.64827 8.102 5.64522 8.09338 5.64276 8.08477L4.9658 5.95503L0.290484 1.6119C0.0638126 1.40095 0.0502935 1.04548 0.260994 0.818548Z" fill="#300B39"/>
</svg>
