<svg width="39" height="5" viewBox="0 0 39 5" fill="none" xmlns="http://www.w3.org/2000/svg">
<path d="M38.0891 1.21173V3.44479C38.0891 3.62253 38.0351 3.78735 37.9417 3.92511C37.844 4.06963 37.7034 4.18341 37.5387 4.24675C37.4884 4.26705 37.4355 4.28181 37.3815 4.29103C37.3317 4.30026 37.2813 4.30518 37.2297 4.30518H1.70437C1.56677 4.30518 1.43593 4.27197 1.32044 4.21354C1.06183 4.08378 0.876309 3.82548 0.848666 3.52413C0.847437 3.51244 0.846194 3.50076 0.846194 3.48846C0.84558 3.47431 0.844971 3.45955 0.844971 3.44479V1.21173C0.844971 1.19697 0.84558 1.18221 0.846194 1.16745C0.86708 0.748016 1.19206 0.406076 1.60301 0.357491C1.63619 0.353186 1.66997 0.351341 1.70437 0.351341H37.2297C37.2813 0.351341 37.3317 0.355647 37.3815 0.364872C37.4355 0.374712 37.4884 0.388856 37.5387 0.409151C37.7034 0.473111 37.844 0.586885 37.9417 0.73141C38.0351 0.868555 38.0891 1.03399 38.0891 1.21173Z" fill="#90E9F9"/>
</svg>
