<svg width="38" height="5" viewBox="0 0 38 5" fill="none" xmlns="http://www.w3.org/2000/svg">
<path d="M37.4772 1.07465V3.3071C37.4772 3.48545 37.4232 3.65027 37.3304 3.78803C37.2321 3.93255 37.0915 4.04571 36.9268 4.10967C36.8765 4.12997 36.8236 4.14473 36.7696 4.15395C36.753 4.15703 36.7364 4.15949 36.7198 4.16133C36.7063 4.16318 36.6928 4.16441 36.6799 4.16564C36.6732 4.16564 36.6664 4.16625 36.6596 4.16687C36.6461 4.16748 36.632 4.16748 36.6179 4.16748H1.09247C0.634827 4.16748 0.25766 3.80463 0.234317 3.35138C0.233703 3.33662 0.233093 3.32186 0.233093 3.3071V1.07465C0.233093 1.05989 0.233703 1.04513 0.234317 1.03037C0.25766 0.577111 0.634827 0.213646 1.09247 0.213646H36.6179C36.6332 0.213646 36.6486 0.214261 36.6633 0.215491C36.6996 0.217336 36.7345 0.221641 36.7696 0.227791C36.8236 0.237016 36.8765 0.251776 36.9268 0.272071C36.9526 0.281911 36.9778 0.29298 37.0012 0.30528C37.0165 0.31266 37.0313 0.320656 37.0454 0.329266L37.0503 0.331726C37.0651 0.340336 37.0792 0.349561 37.0933 0.358787L37.1007 0.363705C37.1142 0.372315 37.1271 0.381541 37.1394 0.391996C37.1695 0.414751 37.1983 0.439352 37.2248 0.466412C37.2334 0.474406 37.2413 0.483016 37.2487 0.491626L37.253 0.496546C37.2586 0.501466 37.2635 0.507001 37.2678 0.512537L37.2708 0.515611C37.2794 0.526067 37.288 0.536521 37.296 0.547591C37.3077 0.562351 37.3194 0.577726 37.3304 0.593716C37.4232 0.731476 37.4772 0.896296 37.4772 1.07465Z" fill="#90E9F9"/>
</svg>
