<svg width="17" height="39" viewBox="0 0 17 39" fill="none" xmlns="http://www.w3.org/2000/svg">
<path d="M1.86823 10.685C3.05564 13.1106 5.8709 16.4888 6.90904 19.1062C7.15476 19.7255 7.30095 20.3011 7.30341 20.8128C7.32798 26.6873 13.6975 38.2714 13.6975 38.2714C14.3051 38.6644 16.8973 37.8772 16.8973 37.8772C16.8973 37.8772 16.5969 35.3028 15.1085 26.4081C14.2885 21.5016 12.9045 14.1967 11.8289 8.63152C11.5512 7.19795 11.2944 5.88001 11.0739 4.74841C10.596 2.30748 10.2827 0.73246 10.2827 0.73246L7.81267 0.773666L1.14152 0.884365C1.14152 0.884365 -1.62706 3.54239 1.86823 10.685Z" fill="#3A608B"/>
</svg>
