<svg width="25" height="5" viewBox="0 0 25 5" fill="none" xmlns="http://www.w3.org/2000/svg">
<path d="M0.533709 3.01882L0.656566 4.43516C0.666395 4.54771 0.709395 4.6498 0.776352 4.73159C0.845766 4.81769 0.941595 4.88227 1.04971 4.91363C1.08288 4.92347 1.1173 4.93024 1.15231 4.9327C1.18426 4.93639 1.21558 4.93639 1.24875 4.93331L1.40907 4.91978L1.54913 4.90748L1.80528 4.88473L2.07557 4.86197L2.33112 4.83922L2.62046 4.81462L2.87721 4.79248L3.44605 4.74266L3.7016 4.72052L4.31281 4.66763L4.56897 4.64549L5.35278 4.57723L5.60833 4.55447L6.94563 4.43885L7.20178 4.4161L8.63062 4.29248L8.88677 4.26973L11.2143 4.06801L11.4705 4.04587L11.769 4.02004L13.6334 3.85829L13.8895 3.83615L15.7926 3.6701L16.0493 3.64796L17.461 3.52558L19.8948 3.31402L23.785 2.97638C24.0473 2.95301 24.2519 2.74453 24.2802 2.49115C24.282 2.48008 24.2826 2.46839 24.2826 2.45732C24.2838 2.43334 24.2832 2.40874 24.2814 2.38352L24.1591 0.967177C24.1585 0.958567 24.1573 0.949958 24.1561 0.940733C24.126 0.721793 23.9687 0.548363 23.7672 0.488092C23.704 0.469643 23.6358 0.462261 23.5664 0.468411L17.7263 0.975786L17.7061 0.977633L17.4499 0.999774L17.2441 1.01761L15.5757 1.16275L15.5456 1.16521L15.2901 1.18735L13.6721 1.32757L13.47 1.34479V1.3454H13.4693L13.4159 1.35032L13.1272 1.37492L13.035 1.38292L12.871 1.39706L11.2536 1.5379L10.9975 1.56004L10.5441 1.5994L10.2873 1.62154L8.85853 1.74577L8.66932 1.76237L8.60235 1.76791L8.41377 1.78451L7.26506 1.88414L7.0089 1.90628L6.98433 1.90874L6.72878 1.93088L6.22507 1.97393L5.96954 1.99669L5.35832 2.04958L5.10217 2.07172L4.53333 2.12092L4.3515 2.13691L4.27656 2.14367L4.09534 2.15905L3.98784 2.16827L3.73169 2.19041L3.48475 2.21255L3.4614 2.21378L3.2286 2.23469L3.20585 2.23592L3.06581 2.24884L2.80964 2.27098L2.70953 2.27959H2.70828L2.65976 2.28389L2.40299 2.30603L2.11427 2.33125L1.85812 2.35339L1.33168 2.39951L1.19224 2.41181L1.0319 2.42534C0.998733 2.42842 0.967404 2.43395 0.93669 2.44256C0.90229 2.45179 0.869743 2.46409 0.839028 2.47946C0.738285 2.52928 0.654738 2.60861 0.600681 2.7064C0.549081 2.79865 0.52388 2.90627 0.533709 3.01882Z" fill="#90E9F9"/>
</svg>
