<svg width="39" height="5" viewBox="0 0 39 5" fill="none" xmlns="http://www.w3.org/2000/svg">
<path d="M38.1415 1.02227V3.25472C38.1415 3.43307 38.0874 3.59789 37.994 3.73565C37.8964 3.88018 37.7557 3.99395 37.5905 4.0573C37.5401 4.07759 37.4879 4.09235 37.4332 4.10158C37.3841 4.1108 37.3337 4.11572 37.2821 4.11572H1.75672C1.29846 4.11572 0.921282 3.75226 0.897939 3.299C0.897939 3.28424 0.897339 3.26948 0.897339 3.25472V1.02227C0.897339 1.00751 0.897939 0.992753 0.897939 0.977993C0.919439 0.559178 1.2438 0.216623 1.65476 0.167423C1.68854 0.163118 1.72232 0.161273 1.75672 0.161273H37.2821C37.3337 0.161273 37.3841 0.166193 37.4332 0.175418C37.4879 0.184643 37.5401 0.199403 37.5905 0.219698C37.7557 0.283043 37.8964 0.396818 37.994 0.541343C38.0874 0.679103 38.1415 0.843923 38.1415 1.02227Z" fill="#90E9F9"/>
</svg>
