<svg width="38" height="5" viewBox="0 0 38 5" fill="none" xmlns="http://www.w3.org/2000/svg">
<path d="M0.592041 1.05303V3.28548C0.592041 3.46383 0.646098 3.62865 0.73947 3.76641C0.837141 3.91094 0.977798 4.0241 1.14243 4.08806C1.1928 4.10835 1.24564 4.12311 1.29969 4.13234C1.34945 4.14156 1.39982 4.14648 1.45142 4.14648H36.9768C37.4344 4.14648 37.8122 3.78302 37.8349 3.32976C37.8356 3.315 37.8362 3.30024 37.8362 3.28548V1.05303C37.8362 1.03827 37.8356 1.02351 37.8349 1.00875C37.8141 0.58994 37.4891 0.247385 37.0781 0.198184C37.045 0.19388 37.0112 0.192034 36.9768 0.192034H1.45142C1.39982 0.192034 1.34945 0.196955 1.29969 0.20618C1.24564 0.215405 1.1928 0.230165 1.14243 0.250459C0.977798 0.313804 0.837141 0.42758 0.73947 0.572105C0.646098 0.709865 0.592041 0.874685 0.592041 1.05303Z" fill="#90E9F9"/>
</svg>
