<svg width="21" height="5" viewBox="0 0 21 5" fill="none" xmlns="http://www.w3.org/2000/svg">
<path d="M0.464111 4.12549H19.4965C19.6194 4.12549 19.7361 4.09228 19.8393 4.03385C20.0703 3.90409 20.2355 3.64579 20.2607 3.34444C20.2613 3.33275 20.2626 3.32107 20.2632 3.30877C20.2632 3.29401 20.2638 3.27925 20.2638 3.26449V1.03204C20.2638 1.01728 20.2632 1.00252 20.2632 0.987759C20.2441 0.568944 19.9542 0.226389 19.5875 0.177804C19.558 0.173499 19.5272 0.171038 19.4965 0.171038H2.80147L2.80025 0.177804C2.53979 1.31125 1.9427 2.86535 0.573459 4.03385C0.53783 4.0646 0.501583 4.09535 0.464111 4.12549Z" fill="#19BBDC"/>
</svg>
