<svg width="38" height="5" viewBox="0 0 38 5" fill="none" xmlns="http://www.w3.org/2000/svg">
<path d="M0.644409 1.24249V3.47555C0.644409 3.65329 0.698481 3.81811 0.791238 3.95587C0.889524 4.10039 1.03019 4.21417 1.19482 4.27751C1.24519 4.29781 1.298 4.31257 1.35206 4.32179C1.40182 4.33102 1.45221 4.33594 1.50381 4.33594H37.0286C37.1668 4.33594 37.297 4.30273 37.4125 4.2443C37.6717 4.11454 37.8572 3.85624 37.8849 3.55489C37.8861 3.5432 37.8867 3.53152 37.8873 3.51922C37.8879 3.50446 37.8886 3.49031 37.8886 3.47555V1.24249C37.8886 1.22773 37.8879 1.21297 37.8873 1.19821C37.8658 0.778776 37.5415 0.436838 37.1305 0.388253C37.0974 0.383948 37.0636 0.382103 37.0286 0.382103H1.50381C1.45221 0.382103 1.40182 0.386406 1.35206 0.395631C1.298 0.404856 1.24519 0.419617 1.19482 0.439912C1.03019 0.503872 0.889524 0.617032 0.791238 0.762172C0.698481 0.899317 0.644409 1.06414 0.644409 1.24249Z" fill="#90E9F9"/>
</svg>
