<svg width="38" height="38" viewBox="0 0 38 38" fill="none" xmlns="http://www.w3.org/2000/svg">
<path d="M19.0113 2.06087C14.4103 2.06087 10.0845 3.85421 6.83125 7.11186C3.57738 10.3689 1.78612 14.6997 1.78612 19.3061C1.78612 23.9124 3.57738 28.2433 6.83125 31.5009C10.0845 34.758 14.4103 36.5519 19.0113 36.5519C23.6123 36.5519 27.9381 34.758 31.1914 31.5009C34.4452 28.2433 36.2371 23.9124 36.2371 19.3061C36.2371 14.6997 34.4452 10.3689 31.1914 7.11186C27.9381 3.85421 23.6123 2.06087 19.0113 2.06087ZM19.0113 37.646C16.5388 37.646 14.1394 37.1608 11.8807 36.2044C9.69935 35.2807 7.74039 33.9585 6.05847 32.274C4.37595 30.5901 3.05522 28.6289 2.13256 26.445C1.17735 24.1836 0.692688 21.7815 0.692688 19.3061C0.692688 16.8307 1.17735 14.4285 2.13256 12.1672C3.05522 9.9833 4.37595 8.02206 6.05847 6.33819C7.74039 4.65371 9.69935 3.33145 11.8807 2.40772C14.1394 1.4514 16.5388 0.966167 19.0113 0.966167C21.4838 0.966167 23.8832 1.4514 26.1419 2.40772C28.3233 3.33145 30.2822 4.65371 31.9641 6.33819C33.6467 8.02206 34.9674 9.9833 35.89 12.1672C36.8453 14.4285 37.3299 16.8307 37.3299 19.3061C37.3299 21.7815 36.8453 24.1836 35.89 26.445C34.9674 28.6289 33.6467 30.5901 31.9641 32.274C30.2822 33.9585 28.3233 35.2807 26.1419 36.2044C23.8832 37.1608 21.4838 37.646 19.0113 37.646Z" fill="#F87205"/>
</svg>
