<svg width="14" height="5" viewBox="0 0 14 5" fill="none" xmlns="http://www.w3.org/2000/svg">
<path d="M0.769043 4.02002L2.6334 3.85828L2.88958 3.83614L4.79261 3.67009L5.04939 3.64794L6.46102 3.52556L8.89482 3.314L12.7851 2.97637L12.8422 2.97144C13.0769 2.95115 13.2587 2.74451 13.2802 2.49113C13.2821 2.48006 13.2827 2.46838 13.2827 2.45731C13.2839 2.43332 13.2833 2.40872 13.2814 2.38351L13.1592 0.96716C13.1586 0.95855 13.1573 0.949941 13.1561 0.940716C13.1272 0.721776 12.9841 0.545886 12.8029 0.485001C12.7464 0.465935 12.6862 0.457941 12.6248 0.463475L12.5664 0.468394L6.72639 0.97577L6.70612 0.977616L6.44996 0.999757L6.24418 1.01759L4.83194 1.14059L4.57579 1.16273L4.54568 1.16519L4.29015 1.18733L2.67211 1.32755L2.47001 1.34539H2.46939L2.41595 1.35031L2.12724 1.37491L2.0351 1.3829C2.03325 1.39582 2.03141 1.40812 2.03018 1.42042H2.02958C1.91962 2.17072 1.60939 3.20514 0.769043 4.02002Z" fill="#19BBDC"/>
</svg>
