<svg width="5" height="6" viewBox="0 0 5 6" fill="none" xmlns="http://www.w3.org/2000/svg">
<path d="M1.47048 3.63567V4.79002C1.50979 4.79494 1.55955 4.79802 1.61913 4.80048C1.6781 4.80294 1.75612 4.80355 1.85256 4.80355C1.96006 4.80355 2.0694 4.79494 2.17936 4.77649C2.28993 4.75804 2.39068 4.72729 2.48098 4.68363C2.57189 4.63996 2.64375 4.58031 2.6978 4.50467C2.75125 4.42964 2.77828 4.33431 2.77828 4.21992C2.77828 3.99975 2.68921 3.84784 2.51107 3.76297C2.33231 3.6781 2.10135 3.63567 1.81877 3.63567H1.47048ZM1.47048 2.66028H1.7082C1.95146 2.66028 2.14126 2.61969 2.27702 2.53974C2.41339 2.45979 2.48098 2.3208 2.48098 2.124C2.48098 2.02806 2.457 1.94749 2.40909 1.88353C2.36056 1.81957 2.29976 1.76914 2.22605 1.73224C2.15234 1.69596 2.07063 1.67074 1.97971 1.6566C1.88941 1.64307 1.80156 1.6363 1.71679 1.6363C1.68239 1.6363 1.64125 1.6363 1.59334 1.6363C1.54542 1.6363 1.50426 1.63876 1.47048 1.64307V2.66028ZM4.29926 4.26789C4.29926 4.57047 4.23106 4.82016 4.0953 5.01696C3.95955 5.21376 3.77221 5.36935 3.53448 5.48374C3.29675 5.59875 3.01356 5.6787 2.68492 5.72421C2.35627 5.77033 1.99938 5.79309 1.61484 5.79309C1.30892 5.79309 1.0337 5.78386 0.790445 5.76603C0.547188 5.74758 0.283674 5.72421 0.000488281 5.69715V0.784529C0.215488 0.756854 0.450765 0.734097 0.705693 0.715647C0.960622 0.697197 1.25793 0.687973 1.59763 0.687973C1.92075 0.687973 2.22175 0.710116 2.50248 0.753166C2.78259 0.796831 3.02768 0.870015 3.23715 0.973335C3.44662 1.07604 3.61249 1.2138 3.73412 1.38538C3.85575 1.55697 3.91656 1.77345 3.91656 2.03482C3.91656 2.25007 3.85759 2.44626 3.73842 2.62215C3.61925 2.79865 3.46936 2.93457 3.28814 3.03112C3.41837 3.07233 3.5443 3.12645 3.66593 3.19287C3.78817 3.25867 3.89568 3.3417 3.98905 3.4401C4.08242 3.5385 4.15735 3.65658 4.21386 3.79372C4.27038 3.93148 4.29926 4.08893 4.29926 4.26789Z" fill="#19BDDE"/>
</svg>
