<svg width="38" height="5" viewBox="0 0 38 5" fill="none" xmlns="http://www.w3.org/2000/svg">
<path d="M0.0196533 1.03204V3.26449C0.0196533 3.44284 0.0737105 3.60766 0.167082 3.74542C0.264753 3.88994 0.40541 4.00372 0.570039 4.06706C0.62041 4.08736 0.673249 4.10212 0.727306 4.11134C0.777063 4.12057 0.827429 4.12549 0.87903 4.12549H36.4044C36.542 4.12549 36.6728 4.09228 36.7883 4.03385C37.0469 3.90409 37.2325 3.64579 37.2607 3.34444C37.2613 3.33275 37.2626 3.32107 37.2632 3.30877C37.2632 3.29401 37.2638 3.27925 37.2638 3.26449V1.03204C37.2638 1.01728 37.2632 1.00252 37.2632 0.987759C37.2417 0.568329 36.9167 0.226389 36.5058 0.177804C36.4726 0.173499 36.4388 0.171038 36.4044 0.171038H0.87903C0.827429 0.171038 0.777063 0.175959 0.727306 0.185184C0.673249 0.194409 0.62041 0.209168 0.570039 0.229463C0.40541 0.292808 0.264753 0.406583 0.167082 0.551723C0.0737105 0.688868 0.0196533 0.853688 0.0196533 1.03204Z" fill="#90E9F9"/>
</svg>
