<svg width="38" height="5" viewBox="0 0 38 5" fill="none" xmlns="http://www.w3.org/2000/svg">
<path d="M0.255737 1.29498V3.52743C0.255737 3.70578 0.310409 3.8706 0.403166 4.00836C0.500837 4.15288 0.641504 4.26666 0.806747 4.33C0.857118 4.3503 0.909956 4.36506 0.964013 4.37428C0.980599 4.37736 0.997171 4.38043 1.01376 4.38228C1.02297 4.38289 1.03219 4.38412 1.04202 4.38474C1.05124 4.38597 1.06045 4.38658 1.06967 4.38658C1.08502 4.38781 1.10038 4.38843 1.11574 4.38843H36.6405C37.0987 4.38843 37.4759 4.02496 37.4993 3.57171C37.4999 3.55695 37.5005 3.54219 37.5005 3.52743V1.29498C37.5005 1.28022 37.4999 1.26546 37.4993 1.2507C37.4759 0.797442 37.0987 0.433978 36.6405 0.433978H1.11574C1.06352 0.433978 1.01316 0.438897 0.964013 0.448122C0.909956 0.457347 0.857118 0.472108 0.806747 0.492403C0.641504 0.555748 0.500837 0.669522 0.403166 0.814047C0.310409 0.951807 0.255737 1.11663 0.255737 1.29498Z" fill="#90E9F9"/>
</svg>
