<svg width="6" height="6" viewBox="0 0 6 6" fill="none" xmlns="http://www.w3.org/2000/svg">
<path d="M0.526184 0.784475C0.65027 0.766025 0.763917 0.751881 0.865889 0.742656C0.96786 0.734046 1.06675 0.729125 1.16319 0.729125C1.26516 0.729125 1.37144 0.735273 1.4814 0.746344C1.59197 0.758029 1.68656 0.770329 1.76642 0.784475L3.73705 3.47756V0.784475C3.88448 0.766025 4.01716 0.751881 4.13634 0.742656C4.25551 0.734046 4.36302 0.729125 4.45946 0.729125C4.55529 0.729125 4.65726 0.734046 4.76476 0.742656C4.87226 0.751881 4.98589 0.766025 5.10506 0.784475L5.09647 5.69033C5.03934 5.70386 4.95763 5.71739 4.85013 5.73154C4.74202 5.74507 4.62592 5.75183 4.50184 5.75183C4.35994 5.75183 4.23277 5.74383 4.11913 5.72784C4.0061 5.71185 3.9238 5.69956 3.87282 5.69033L1.89357 3.01016V5.69033C1.64417 5.73154 1.41813 5.75183 1.21418 5.75183C1.01024 5.75183 0.780498 5.73154 0.526184 5.69033V0.784475Z" fill="#19BDDE"/>
</svg>
