<svg width="6" height="6" viewBox="0 0 6 6" fill="none" xmlns="http://www.w3.org/2000/svg">
<path d="M2.44031 3.12945V4.2838C2.48024 4.2881 2.52938 4.29179 2.58897 4.29425C2.64855 4.29671 2.72658 4.29733 2.82302 4.29733C2.93052 4.29733 3.03924 4.28811 3.14981 4.27027C3.26039 4.25182 3.36052 4.22107 3.45144 4.1774C3.54174 4.13374 3.61423 4.07409 3.66829 3.99844C3.72173 3.9228 3.74874 3.82809 3.74874 3.7137C3.74874 3.49353 3.65969 3.34162 3.48093 3.25675C3.30279 3.17188 3.07179 3.12945 2.78861 3.12945H2.44031ZM2.44031 2.15344H2.67804C2.92191 2.15344 3.11174 2.11347 3.2475 2.03352C3.38326 1.95357 3.45144 1.81457 3.45144 1.61777C3.45144 1.52183 3.42748 1.44127 3.37895 1.37731C3.33103 1.31335 3.27022 1.26292 3.19651 1.22602C3.1228 1.18974 3.04047 1.16452 2.95017 1.15037C2.85926 1.13684 2.77204 1.13008 2.68665 1.13008C2.65287 1.13008 2.61171 1.13008 2.56379 1.13008C2.51527 1.13008 2.47471 1.13254 2.44031 1.13685V2.15344ZM5.2691 3.76167C5.2691 4.06363 5.20154 4.31393 5.06579 4.51073C4.92941 4.70753 4.74267 4.86313 4.50494 4.97752C4.26721 5.09253 3.9834 5.17247 3.65538 5.21798C3.32673 5.26411 2.96983 5.28687 2.58467 5.28687C2.27876 5.28687 2.00419 5.27764 1.76093 5.25919C1.51706 5.24136 1.25413 5.21798 0.970947 5.19092V0.27769C1.18595 0.25063 1.42122 0.227872 1.67615 0.209422C1.93047 0.190972 2.22778 0.181747 2.56809 0.181747C2.89059 0.181747 3.1922 0.203275 3.47231 0.246941C3.75304 0.290606 3.99814 0.363789 4.20761 0.467109C4.41708 0.569814 4.58234 0.707574 4.70458 0.879159C4.82621 1.05074 4.88702 1.26722 4.88702 1.5286C4.88702 1.74385 4.82743 1.93942 4.70888 2.11592C4.5897 2.29243 4.43981 2.42834 4.2586 2.5249C4.38883 2.5661 4.51476 2.62022 4.63639 2.68603C4.75801 2.75245 4.86614 2.83547 4.95951 2.93387C5.05288 3.03227 5.12781 3.14974 5.18432 3.2875C5.24084 3.42464 5.2691 3.5827 5.2691 3.76167Z" fill="#303876"/>
</svg>
