<svg width="18" height="28" viewBox="0 0 18 28" fill="none" xmlns="http://www.w3.org/2000/svg">
<path d="M11.533 19.6289C11.5803 19.2335 11.5655 18.8786 11.49 18.5637C11.4144 18.2495 11.2645 17.9549 11.0403 17.68C10.8161 17.4051 10.5164 17.14 10.141 16.8854C9.76569 16.6308 9.30128 16.37 8.74719 16.1037C7.79628 15.6376 6.93812 15.1653 6.17334 14.688C5.40855 14.2102 4.76724 13.6874 4.2494 13.1198C3.73094 12.5521 3.35256 11.9156 3.11237 11.209C2.8728 10.5023 2.80768 9.68745 2.91702 8.76495C3.01162 7.96422 3.24014 7.25144 3.60195 6.62537C3.96315 6.00053 4.43615 5.47409 5.02095 5.04666C5.60575 4.61985 6.28268 4.29698 7.05361 4.07804C7.82393 3.8591 8.66981 3.76131 9.59124 3.78468L9.94937 0.761959L12.3795 1.05101L12.0164 4.11617C12.8734 4.33265 13.6363 4.65737 14.3034 5.08971C14.9711 5.52206 15.5203 6.04604 15.9503 6.66042C16.3803 7.27481 16.685 7.97714 16.8638 8.7668C17.0419 9.55707 17.0757 10.423 16.9639 11.3646L12.5748 10.843C12.7087 9.71328 12.5582 8.83814 12.1233 8.21822C11.6884 7.59891 11.0508 7.23852 10.2104 7.13828C9.75464 7.08477 9.35474 7.10138 9.01074 7.18994C8.66612 7.27727 8.37494 7.41995 8.13598 7.61552C7.89702 7.8117 7.70907 8.05401 7.57209 8.34368C7.4351 8.63273 7.34603 8.95191 7.30487 9.30062C7.26371 9.64871 7.27661 9.97035 7.3448 10.2643C7.41237 10.5595 7.5561 10.8412 7.7754 11.1112C7.99531 11.3805 8.29754 11.6456 8.68269 11.9064C9.06724 12.1671 9.55068 12.4463 10.1312 12.7446C11.0698 13.228 11.9188 13.7114 12.678 14.1929C13.4373 14.6745 14.0755 15.2015 14.5934 15.7741C15.1106 16.3461 15.489 16.9863 15.7292 17.6923C15.9687 18.3989 16.0345 19.2089 15.9257 20.1222C15.8281 20.9506 15.5953 21.6781 15.2285 22.3023C14.8618 22.9278 14.387 23.4487 13.8034 23.8663C13.2198 24.2845 12.5386 24.595 11.7597 24.7986C10.9814 25.0022 10.1312 25.092 9.20976 25.0686L8.87682 27.8792L6.46145 27.5926L6.79317 24.7955C5.96265 24.611 5.17146 24.3306 4.4208 23.9555C3.66953 23.5797 3.02146 23.0895 2.47659 22.485C1.93233 21.8811 1.52567 21.1523 1.25723 20.2993C0.988786 19.4463 0.9212 18.4543 1.05511 17.3245L5.44481 17.846C5.36557 18.5145 5.39321 19.0834 5.52774 19.5533C5.66165 20.0225 5.86988 20.4106 6.15184 20.7162C6.43441 21.0213 6.76858 21.2525 7.15619 21.4081C7.54319 21.5637 7.94434 21.6664 8.35959 21.7156C8.83505 21.7722 9.26014 21.7605 9.63424 21.6812C10.0083 21.6012 10.3296 21.4678 10.598 21.2796C10.8671 21.092 11.0797 20.8571 11.2363 20.5748C11.3929 20.2925 11.4918 19.9776 11.533 19.6289Z" fill="#F87205"/>
</svg>
