<svg width="38" height="5" viewBox="0 0 38 5" fill="none" xmlns="http://www.w3.org/2000/svg">
<path d="M0.495178 1.00689V3.23996C0.495178 3.41769 0.549235 3.58251 0.642607 3.72027C0.740278 3.8648 0.880959 3.97857 1.04559 4.04192C1.09596 4.06221 1.14877 4.07697 1.20283 4.0862C1.25259 4.09542 1.30298 4.10034 1.35458 4.10034H36.8799C37.0225 4.10034 37.157 4.06467 37.2762 4.00256C37.5274 3.87095 37.7068 3.61757 37.7357 3.32237C37.7369 3.30945 37.7381 3.29654 37.7381 3.28362C37.7387 3.26886 37.7393 3.2541 37.7393 3.23996V1.00689C37.7393 0.992132 37.7387 0.977372 37.7381 0.962612C37.7154 0.509357 37.3376 0.146507 36.8799 0.146507H1.35458C1.30298 0.146507 1.25259 0.150812 1.20283 0.160037C1.14877 0.169262 1.09596 0.184022 1.04559 0.204317C0.880959 0.267662 0.740278 0.381438 0.642607 0.526577C0.549235 0.663723 0.495178 0.828542 0.495178 1.00689Z" fill="#90E9F9"/>
</svg>
