<svg width="14" height="4" viewBox="0 0 14 4" fill="none" xmlns="http://www.w3.org/2000/svg">
<path d="M0.598877 3.96729L0.660306 3.96236L0.915858 3.94022L2.46261 3.80554L2.6899 3.78586L2.71939 3.7834L3.07874 3.75204L3.3349 3.72989L4.62245 3.61796L4.8786 3.59582L5.0328 3.58229L5.23858 3.56446L5.49473 3.54232L6.17904 3.48328L12.672 2.91932C12.7329 2.9144 12.79 2.89595 12.8422 2.86828L12.8428 2.86766C12.9988 2.78341 13.1057 2.60691 13.1131 2.40519C13.1137 2.38059 13.1131 2.35598 13.1113 2.33077L12.9884 0.914423C12.9866 0.897203 12.9841 0.87937 12.9817 0.861536C12.9448 0.652436 12.8035 0.487615 12.6272 0.43042C12.5725 0.4132 12.5142 0.406434 12.4546 0.411354L12.4227 0.413814H12.4196L4.81532 1.07432L4.66115 1.08785L4.4056 1.10999L2.50194 1.27543L2.24516 1.29757L1.86431 1.33016C1.76111 2.07124 1.46318 3.10629 0.638806 3.92731C0.625906 3.94084 0.613006 3.95437 0.598877 3.96729Z" fill="#19BBDC"/>
</svg>
