<svg width="6" height="6" viewBox="0 0 6 6" fill="none" xmlns="http://www.w3.org/2000/svg">
<path d="M3.23425 1.56311L2.66481 3.32877C2.76125 3.35153 2.85156 3.36998 2.93694 3.38351C3.02171 3.39765 3.10956 3.40442 3.19986 3.40442C3.2963 3.40442 3.39151 3.39888 3.48488 3.3872C3.57825 3.37551 3.67592 3.35891 3.77789 3.33554L3.23425 1.56311ZM2.045 5.19099C1.91416 5.20944 1.79559 5.22297 1.68809 5.2322C1.57998 5.24142 1.47556 5.24573 1.37358 5.24573C1.27161 5.24573 1.15429 5.24019 1.02099 5.22851C0.887693 5.21682 0.739027 5.20022 0.575012 5.17685L0.604503 4.68362L2.47807 0.27099C2.6255 0.25746 2.76247 0.245777 2.89025 0.236552C3.0174 0.227942 3.14642 0.223021 3.27665 0.223021C3.38415 0.223021 3.50146 0.227942 3.62924 0.236552C3.75639 0.245777 3.90259 0.25746 4.0666 0.27099L5.97396 4.69038L5.94387 5.18423C5.62137 5.22543 5.33818 5.24573 5.09431 5.24573C4.98128 5.24573 4.86763 5.24142 4.7546 5.2322C4.64157 5.22297 4.51933 5.20944 4.3891 5.19099L4.0666 4.2359C3.90812 4.27218 3.75639 4.29986 3.61203 4.31831C3.46767 4.33676 3.32456 4.34598 3.18328 4.34598C3.05244 4.34598 2.91975 4.33799 2.78399 4.32138C2.64762 4.30539 2.50632 4.28141 2.35889 4.24943L2.045 5.19099Z" fill="#303876"/>
</svg>
