<svg width="25" height="5" viewBox="0 0 25 5" fill="none" xmlns="http://www.w3.org/2000/svg">
<path d="M0.363656 2.96601L0.485889 4.38236C0.496332 4.4949 0.539342 4.59699 0.606299 4.6794C0.676327 4.7655 0.771542 4.83008 0.879656 4.86144C0.912827 4.87128 0.946608 4.87743 0.982237 4.88051C1.01418 4.88358 1.04612 4.88358 1.07867 4.88051L1.23901 4.86698L1.37845 4.85468L1.50071 4.84422H1.50193L1.59899 4.83561L1.63523 4.83253L1.85515 4.81347L1.90551 4.80917L1.99458 4.80117L2.16167 4.78703L2.25074 4.77903L2.45038 4.76181L2.52102 4.75566L2.70653 4.73967L2.77657 4.73352L3.06589 4.70831L3.27599 4.68986L3.32266 4.68617L3.53152 4.66772L3.8915 4.63635L4.14274 4.61483L4.14703 4.61421L4.39889 4.59268L4.75825 4.56132L5.01442 4.53918L5.1821 4.52442L5.43828 4.50228L5.79824 4.47092L6.05379 4.44878L6.77617 4.38604L7.03173 4.36391L7.39171 4.33254L7.64724 4.30978L8.46117 4.23968L8.71672 4.21692L9.07667 4.18678L9.33285 4.16342L11.0442 4.01582L11.3004 3.99306L11.5989 3.96723L11.6604 3.96231L11.9159 3.94017L13.4627 3.80548L13.69 3.78581L13.7194 3.78334L14.0788 3.75198L14.335 3.72984L15.6225 3.61729L15.8787 3.59516L16.0329 3.58224L16.2386 3.56441V3.56379L16.4948 3.54165L17.1785 3.48261L23.6131 2.92419C23.6819 2.91804 23.7464 2.89959 23.8054 2.87068C23.9817 2.7852 24.1033 2.60685 24.1132 2.40513C24.1138 2.38053 24.1132 2.35593 24.1113 2.33072L23.9885 0.914369C23.9866 0.897149 23.9842 0.879316 23.9817 0.861481C23.9424 0.653611 23.787 0.490021 23.5904 0.434056C23.5364 0.419296 23.4805 0.411915 23.4227 0.41376H23.4196C23.4123 0.414375 23.4043 0.414991 23.3963 0.415606L15.8154 1.07427L15.6612 1.0878L15.4057 1.10994L13.502 1.27538L13.2452 1.29752L12.8644 1.33011L11.0836 1.48509L10.8268 1.50723L8.49987 1.70957L8.24372 1.73171L6.81488 1.85593L6.55873 1.87808L5.22143 1.99431L4.96466 2.01645L4.18144 2.08472L3.92529 2.10747L3.31467 2.16036L3.05852 2.1825L2.48908 2.2317L2.23293 2.25384L1.94422 2.27906L1.68807 2.30119L1.41778 2.32457L1.1616 2.34671L1.02157 2.35962L0.861851 2.37315C0.82868 2.37623 0.797342 2.38176 0.766013 2.39037C0.732227 2.39898 0.699665 2.41128 0.668951 2.42666C0.568208 2.47647 0.485285 2.55581 0.431227 2.65359C0.379013 2.74584 0.354442 2.85346 0.363656 2.96601Z" fill="#90E9F9"/>
</svg>
