<svg width="21" height="5" viewBox="0 0 21 5" fill="none" xmlns="http://www.w3.org/2000/svg">
<path d="M20.6446 4.30518H1.61223C1.48937 4.30518 1.37264 4.27197 1.27005 4.21354C1.03847 4.08378 0.873852 3.82548 0.848666 3.52413C0.847437 3.51244 0.846194 3.50076 0.846194 3.48846C0.84558 3.47431 0.844971 3.45955 0.844971 3.44479V1.21173C0.844971 1.19697 0.84558 1.18221 0.846194 1.16745C0.865237 0.748631 1.15457 0.406076 1.52191 0.357491C1.55139 0.353186 1.58151 0.351341 1.61223 0.351341H18.3073L18.3085 0.357491C18.569 1.49094 19.1667 3.04504 20.5353 4.21354C20.5709 4.24491 20.6078 4.27504 20.6446 4.30518Z" fill="#19BBDC"/>
</svg>
