<svg width="43" height="36" viewBox="0 0 43 36" fill="none" xmlns="http://www.w3.org/2000/svg">
<path d="M24.4413 34.8686L41.9177 35.2075L42.0879 32.2782C42.1628 30.3527 41.586 27.5138 40.4207 24.0692C39.5355 21.4524 38.6166 19.3946 38.6074 19.3743C36.7301 15.0705 34.3399 11.4217 31.5025 8.52507C29.2358 6.21083 26.6786 4.3689 23.9026 3.04972C20.8908 1.618 18.2641 1.11924 16.7437 0.946426C15.9451 0.855404 15.1374 0.963032 14.391 1.26007L4.21966 5.31293C3.68892 5.52448 3.71595 6.28401 4.25959 6.45867C9.20582 8.05337 13.324 10.335 16.5275 13.2587C19.5295 15.9992 21.7372 19.3048 23.0899 23.084C24.2927 26.4437 24.5814 29.5624 24.6121 31.587C24.6361 33.1583 24.5156 34.3151 24.4413 34.8686ZM42.5075 35.8452L23.7042 35.4811L23.7705 35.1189C23.7804 35.0636 24.746 29.5445 22.4916 23.2691C21.1709 19.592 19.0178 16.3762 16.092 13.7089C12.4265 10.3682 7.52758 7.88178 1.53276 6.31845L0.608887 6.07737L15.2854 0.22995L15.3413 0.228722C15.5004 0.225033 19.2801 0.167835 24.1391 2.46855C26.9869 3.81663 29.6093 5.70099 31.9325 8.06874C34.8307 11.0226 37.2694 14.7415 39.1793 19.1209C39.3304 19.4573 42.9018 27.4849 42.7132 32.3053L42.7126 32.3114L42.5075 35.8452Z" fill="#3A608B"/>
</svg>
