<svg width="18" height="30" viewBox="0 0 18 30" fill="none" xmlns="http://www.w3.org/2000/svg">
<path d="M17.2783 9.48724C17.1941 10.8156 16.7942 12.8279 16.2512 15.0597C16.0399 15.9238 15.8077 16.8217 15.5644 17.7252C15.1688 19.1919 14.7572 20.6667 14.3322 22.0554L14.3162 22.1052C14.2855 22.246 14.2375 22.3961 14.1945 22.5332C13.826 23.7595 13.4728 24.8948 13.165 25.8579C12.5759 27.7011 12.5716 28.7275 12.1011 28.936C11.1563 29.3542 7.43433 28.9052 5.20447 27.9372C3.32046 27.1347 0.449913 24.7128 0.464656 23.4932C0.481242 22.0806 2.37569 17.826 3.63068 12.8587C5.1799 6.79108 8.6156 1.94611 11.4812 0.946733C11.695 0.877239 11.9235 1.32742 12.754 2.12569C13.5219 2.86308 14.5017 3.32248 15.4164 3.42027L15.9483 4.33231C16.6873 5.63611 17.4152 7.32182 17.2783 9.48724Z" fill="#F9B803"/>
</svg>
