<svg width="38" height="5" viewBox="0 0 38 5" fill="none" xmlns="http://www.w3.org/2000/svg">
<path d="M0.407654 1.08453V3.31698C0.407654 3.49533 0.461711 3.66015 0.555082 3.79791C0.652754 3.94243 0.793444 4.05559 0.958687 4.11955C1.00906 4.13985 1.06126 4.15461 1.11593 4.16383C1.13252 4.16691 1.14911 4.16937 1.1657 4.17121C1.17491 4.17244 1.18413 4.17367 1.19334 4.17429C1.20255 4.17552 1.21237 4.17552 1.22158 4.17613C1.23694 4.17736 1.25231 4.17798 1.26705 4.17798H36.7924C37.2507 4.17798 37.6279 3.81451 37.6512 3.36126C37.6512 3.3465 37.6518 3.33174 37.6518 3.31698V1.08453C37.6518 1.06977 37.6512 1.05501 37.6512 1.04025C37.6279 0.586993 37.2507 0.223529 36.7924 0.223529H1.26705C1.21545 0.223529 1.16507 0.228447 1.11593 0.237672C1.06126 0.246897 1.00906 0.261659 0.958687 0.281954C0.793444 0.345299 0.652754 0.459072 0.555082 0.603597C0.461711 0.741357 0.407654 0.906179 0.407654 1.08453Z" fill="#90E9F9"/>
</svg>
