<svg width="43" height="37" viewBox="0 0 43 37" fill="none" xmlns="http://www.w3.org/2000/svg">
<path d="M24.0194 35.1589L41.4959 35.4977L41.666 32.5679C41.741 30.6423 41.1648 27.8041 39.9989 24.3595C39.1137 21.742 38.1947 19.6849 38.1855 19.6646C36.3082 15.3608 33.9187 11.7114 31.0807 8.81536C28.8139 6.50111 26.2567 4.65857 23.4807 3.33939C20.4689 1.90829 17.8422 1.40953 16.3218 1.2361C15.5239 1.14569 14.7155 1.25332 13.9691 1.55037L3.79779 5.60321C3.26704 5.81477 3.29407 6.57368 3.83772 6.74896C8.78394 8.34365 12.9021 10.6247 16.1056 13.549C19.1076 16.2895 21.316 19.5951 22.6686 23.3742C23.8708 26.734 24.1595 29.8527 24.1902 31.8772C24.2142 33.4486 24.0938 34.6054 24.0194 35.1589ZM42.0856 36.1355L23.2823 35.7714L23.3486 35.4086C23.3585 35.3538 24.3241 29.8348 22.0697 23.5587C20.749 19.8823 18.5959 16.6658 15.6701 13.9992C12.0046 10.6585 7.10634 8.17145 1.11091 6.60812L0.187012 6.36766L14.8635 0.519619L14.9201 0.518391C15.0785 0.515316 18.8582 0.458122 23.7172 2.75822C26.565 4.10691 29.1874 5.99128 31.5107 8.35903C34.4089 11.3129 36.8476 15.0312 38.7574 19.4106C38.9085 19.7476 42.48 27.7752 42.2914 32.5956V32.6017L42.0856 36.1355Z" fill="#3A608B"/>
</svg>
