<svg width="38" height="5" viewBox="0 0 38 5" fill="none" xmlns="http://www.w3.org/2000/svg">
<path d="M37.4772 1.26422V3.49667C37.4772 3.67502 37.4232 3.83984 37.3304 3.9776C37.2321 4.12212 37.0915 4.2359 36.9268 4.29924C36.8765 4.31954 36.8236 4.3343 36.7696 4.34352C36.753 4.3466 36.7364 4.34967 36.7198 4.35152C36.7106 4.35213 36.7014 4.35336 36.6916 4.35398C36.6824 4.35521 36.6731 4.35582 36.6633 4.35582C36.6486 4.35705 36.6332 4.35767 36.6179 4.35767H1.09247C0.634827 4.35767 0.25766 3.9942 0.234317 3.54095C0.233703 3.52619 0.233093 3.51143 0.233093 3.49667V1.26422C0.233093 1.24946 0.233703 1.23469 0.234317 1.21993C0.25766 0.76668 0.634827 0.403216 1.09247 0.403216H36.6179C36.6701 0.403216 36.7198 0.408135 36.7696 0.41736C36.8236 0.426585 36.8765 0.441346 36.9268 0.461641C37.0915 0.525601 37.2321 0.638761 37.3304 0.7839C37.4232 0.921046 37.4772 1.08587 37.4772 1.26422Z" fill="#90E9F9"/>
</svg>
