<svg width="6" height="6" viewBox="0 0 6 6" fill="none" xmlns="http://www.w3.org/2000/svg">
<path d="M3.26373 2.06921L2.69429 3.83487C2.79073 3.85763 2.88165 3.87608 2.96642 3.88961C3.05119 3.90376 3.13903 3.91052 3.22994 3.91052C3.32577 3.91052 3.42099 3.90498 3.51436 3.8933C3.60773 3.88223 3.7054 3.86501 3.80737 3.84164L3.26373 2.06921ZM2.07448 5.69709C1.94425 5.71493 1.82507 5.72907 1.71757 5.7383C1.61007 5.74752 1.50504 5.75183 1.40306 5.75183C1.30109 5.75183 1.18375 5.7463 1.05045 5.73461C0.917764 5.72354 0.769121 5.70632 0.604492 5.68356L2.50755 0.777093C2.65498 0.763564 2.79195 0.751881 2.91973 0.742656C3.04688 0.734046 3.1759 0.729125 3.30613 0.729125C3.41363 0.729125 3.53156 0.734046 3.65872 0.742656C3.78649 0.751881 3.93207 0.763564 4.09608 0.777093L5.97395 5.69033C5.65084 5.73154 5.36767 5.75183 5.12441 5.75183C5.01077 5.75183 4.89773 5.74752 4.78408 5.7383C4.67105 5.72907 4.54944 5.71493 4.41921 5.69709L4.09608 4.742C3.9376 4.7789 3.78648 4.80596 3.64151 4.82441C3.49715 4.84286 3.35402 4.85209 3.21274 4.85209C3.08251 4.85209 2.94921 4.84409 2.81345 4.8281C2.67769 4.81149 2.53581 4.78751 2.38899 4.75553L2.07448 5.69709Z" fill="#19BDDE"/>
</svg>
