<svg width="24" height="6" viewBox="0 0 24 6" fill="none" xmlns="http://www.w3.org/2000/svg">
<path d="M0.193551 3.38471L0.316408 4.80106C0.326237 4.9136 0.369237 5.01569 0.436194 5.09749C0.444794 5.10856 0.453998 5.1184 0.463213 5.12824C0.501298 5.16883 0.545522 5.20327 0.593437 5.23033C0.629679 5.25124 0.66776 5.26723 0.708303 5.27953L0.709551 5.28014C0.742722 5.28998 0.777732 5.29613 0.812132 5.29921C0.844075 5.30228 0.876627 5.30228 0.90857 5.29921L1.06951 5.28568L1.20895 5.27338L1.23169 5.27153L1.46512 5.25124L1.48785 5.24939L1.73541 5.22787L1.99156 5.20573L2.09906 5.1965L2.28027 5.18051L2.35459 5.17436L2.53705 5.15837L3.10586 5.10856L3.13843 5.10548L3.36202 5.08642L3.39458 5.08334L3.97263 5.03353L4.22878 5.01139L4.73187 4.96711L4.98805 4.94497L5.01262 4.94312L5.26877 4.92037L6.41686 4.82074L6.60607 4.80475L6.67302 4.7986L6.86222 4.78199L8.29106 4.65838L8.54721 4.63562L9.00056 4.59688L9.25671 4.57412L10.8747 4.4339L11.0295 4.42037H11.0301L11.1303 4.41176L11.4196 4.38655L11.4294 4.38593L11.6758 4.36441L13.2932 4.22419L13.5493 4.20205L13.5788 4.19897L13.8356 4.17683L15.2472 4.05445L15.453 4.036L15.7092 4.01386L15.7823 4.00771L21.7673 3.48803L21.8029 3.48496L23.4455 3.34228C23.7078 3.31829 23.9123 3.11104 23.94 2.85704C23.9418 2.84597 23.9424 2.8349 23.9431 2.82383C23.9443 2.79923 23.9437 2.77463 23.9412 2.74942L23.819 1.33307C23.8184 1.32446 23.8171 1.31585 23.8159 1.30663C23.8147 1.29802 23.814 1.28941 23.8122 1.2808C23.7606 1.00712 23.5081 0.809708 23.2262 0.834308L22.8429 0.867517L22.8423 0.868133L22.8054 0.870592L20.981 1.02926L16.122 1.45115L15.4917 1.5065L15.2362 1.52864L15.0298 1.54648L14.8756 1.55939L14.6194 1.58153L13.3319 1.69408L13.0757 1.71622L12.7164 1.74758H12.7158L12.6949 1.74881L12.4602 1.76972L10.6389 1.92716L10.2973 1.95668L10.0405 1.97944L7.71363 2.18116L7.45748 2.2033L6.02864 2.32753L5.77249 2.34967L4.43519 2.4659L4.17842 2.48804L4.01134 2.5028L3.75516 2.52556L3.3958 2.55692L3.13965 2.57906L2.52844 2.63195L2.31958 2.64979L2.27228 2.65409L2.0628 2.67193L1.77409 2.69714L1.70345 2.70329L1.44729 2.72543L1.15798 2.75065L0.901803 2.77279L0.85206 2.77771L0.691722 2.79124C0.671451 2.79308 0.651798 2.79554 0.632141 2.80046C0.62047 2.80292 0.608794 2.80538 0.596508 2.80846C0.563337 2.81707 0.532018 2.82875 0.501918 2.84413H0.500694L0.50007 2.84474L0.498846 2.84536C0.398103 2.89517 0.31518 2.97451 0.261122 3.07229C0.208908 3.16454 0.184337 3.27217 0.193551 3.38471Z" fill="#90E9F9"/>
</svg>
