<svg width="40" height="17" viewBox="0 0 40 17" fill="none" xmlns="http://www.w3.org/2000/svg">
<path d="M0.591205 16.1244L1.34308 11.5937C1.04577 11.5795 0.809276 11.3341 0.809276 11.034V4.89818C0.809276 4.73028 0.884824 4.57099 1.01444 4.46398L5.57366 0.72294C5.81323 0.52614 6.16646 0.561193 6.36242 0.801044C6.55899 1.04089 6.52398 1.39452 6.28441 1.59071L1.93035 5.16386V10.483L34.0864 11.0642L35.084 8.253C35.1878 7.96088 35.5078 7.80836 35.7996 7.91168C36.0914 8.01561 36.2437 8.33664 36.1405 8.62877L35.1896 11.3077L39.4669 12.9805C39.755 13.0931 39.8975 13.4184 39.7851 13.7074C39.6985 13.9288 39.4872 14.0648 39.263 14.0648C39.1948 14.0648 39.126 14.0518 39.059 14.026L34.3689 12.1921L33.7749 12.181L30.6795 16.6305C30.5235 16.8544 30.233 16.7031 30.2459 16.4048L30.4301 12.1207L4.73027 11.6558L0.928438 16.3138C0.795138 16.4768 0.554962 16.3421 0.591205 16.1244Z" fill="#300B39"/>
</svg>
