<svg width="5" height="6" viewBox="0 0 5 6" fill="none" xmlns="http://www.w3.org/2000/svg">
<path d="M3.40331 3.15469L4.99186 5.69033C4.89603 5.70817 4.76704 5.72354 4.60548 5.73461C4.44392 5.7463 4.29832 5.75183 4.16809 5.75183C4.00346 5.75183 3.84498 5.7463 3.69202 5.73461C3.53968 5.72354 3.40885 5.70817 3.30135 5.69033L1.74658 3.2168L3.18279 0.784475C3.35233 0.761105 3.49975 0.746346 3.62445 0.739581C3.74915 0.732816 3.87632 0.729125 4.00655 0.729125C4.0686 0.729125 4.13984 0.730352 4.21908 0.732812C4.29832 0.735272 4.37634 0.739578 4.45251 0.746344C4.5293 0.753109 4.6024 0.759876 4.67365 0.767256C4.7443 0.774021 4.80511 0.779555 4.85609 0.784475L3.40331 3.15469ZM0.124268 0.784475C0.277225 0.766025 0.416034 0.751881 0.540734 0.742656C0.66482 0.734046 0.775406 0.729125 0.871848 0.729125C0.97382 0.729125 1.08869 0.734046 1.21585 0.742656C1.34362 0.751881 1.48059 0.766025 1.62802 0.784475V5.69033C1.32763 5.73154 1.07824 5.75183 0.880439 5.75183C0.670967 5.75183 0.41851 5.73154 0.124268 5.69033V0.784475Z" fill="#19BDDE"/>
</svg>
