<svg width="20" height="5" viewBox="0 0 20 5" fill="none" xmlns="http://www.w3.org/2000/svg">
<path d="M0.0888672 4.33594H19.1213C19.2441 4.33594 19.3602 4.30273 19.4634 4.2443C19.695 4.11454 19.8597 3.85624 19.8848 3.55489C19.8861 3.5432 19.8867 3.53152 19.8873 3.51922C19.8879 3.50446 19.8885 3.49031 19.8885 3.47555V1.24249C19.8885 1.22773 19.8879 1.21297 19.8873 1.19821C19.8683 0.779391 19.5783 0.436838 19.2116 0.388253C19.1821 0.383948 19.152 0.382103 19.1213 0.382103H2.42622L2.42438 0.388253C2.16453 1.5217 1.56684 3.0758 0.198215 4.2443C0.162586 4.27505 0.125724 4.3058 0.0888672 4.33594Z" fill="#19BBDC"/>
</svg>
