<svg width="41" height="32" viewBox="0 0 41 32" fill="none" xmlns="http://www.w3.org/2000/svg">
<path d="M36.2537 6.83216C35.9834 4.88759 34.999 3.11249 33.4913 1.85113C31.9837 0.589772 30.0603 -0.0679401 28.0942 0.00555693C26.1281 0.079054 24.2594 0.878522 22.8506 2.2489C21.4418 3.61929 20.5932 5.46291 20.4695 7.42221C12.4182 10.7356 4.54877 2.49757 4.54877 2.49757C2.27439 16.1141 9.09755 22.355 9.09755 22.355C6.00438 25.1917 0 25.1917 0 25.1917C0 25.1917 3.59353 32 19.5142 32C35.4349 32 36.3902 13.8447 36.3902 13.8447C37.89 13.3001 39.1584 12.2609 39.9856 10.899C40.8128 9.53711 41.1492 7.9342 40.939 6.35558C39.4049 6.71886 37.8297 6.8791 36.2537 6.83216Z" fill="#00C2FF"/>
</svg>
