<svg width="37" height="37" viewBox="0 0 37 37" fill="none" xmlns="http://www.w3.org/2000/svg">
<path opacity="0.4" d="M18.5 3.08334C14.4608 3.08334 11.1771 6.36709 11.1771 10.4063C11.1771 14.3683 14.2758 17.575 18.315 17.7138C18.4383 17.6983 18.5616 17.6983 18.6541 17.7138C18.685 17.7138 18.7004 17.7138 18.7312 17.7138C18.7466 17.7138 18.7466 17.7138 18.7621 17.7138C22.7087 17.575 25.8075 14.3683 25.8229 10.4063C25.8229 6.36709 22.5391 3.08334 18.5 3.08334Z" fill="#8E8E8E"/>
<path d="M26.3331 21.8144C22.0318 18.9469 15.0173 18.9469 10.6852 21.8144C8.7273 23.1249 7.64813 24.8978 7.64813 26.794C7.64813 28.6903 8.7273 30.4478 10.6698 31.7428C12.8281 33.1919 15.6647 33.9165 18.5014 33.9165C21.3381 33.9165 24.1747 33.1919 26.3331 31.7428C28.2756 30.4324 29.3547 28.6749 29.3547 26.7632C29.3393 24.8669 28.2756 23.1094 26.3331 21.8144Z" fill="#8E8E8E"/>
</svg>
