<svg width="29" height="29" viewBox="0 0 29 29" fill="none" xmlns="http://www.w3.org/2000/svg">
<path d="M14.5 2.41669C12.1102 2.41669 9.77398 3.12536 7.78688 4.4531C5.79979 5.78083 4.25104 7.66799 3.33648 9.87593C2.42192 12.0839 2.18263 14.5134 2.64887 16.8574C3.11511 19.2013 4.26593 21.3543 5.95582 23.0442C7.6457 24.7341 9.79875 25.8849 12.1427 26.3512C14.4866 26.8174 16.9162 26.5781 19.1241 25.6636C21.3321 24.749 23.2192 23.2003 24.5469 21.2132C25.8747 19.2261 26.5834 16.8899 26.5834 14.5C26.5834 12.9132 26.2708 11.3419 25.6636 9.87593C25.0563 8.40991 24.1663 7.07785 23.0442 5.95581C21.9222 4.83377 20.5901 3.94372 19.1241 3.33648C17.6581 2.72923 16.0868 2.41669 14.5 2.41669ZM17.7746 15.3579L14.1496 18.9829C14.0373 19.0962 13.9036 19.1861 13.7564 19.2474C13.6091 19.3088 13.4512 19.3404 13.2917 19.3404C13.1322 19.3404 12.9742 19.3088 12.827 19.2474C12.6797 19.1861 12.5461 19.0962 12.4338 18.9829C12.3205 18.8706 12.2306 18.737 12.1693 18.5897C12.1079 18.4425 12.0764 18.2845 12.0764 18.125C12.0764 17.9655 12.1079 17.8076 12.1693 17.6603C12.2306 17.5131 12.3205 17.3794 12.4338 17.2671L15.2129 14.5L12.4338 11.7329C12.2062 11.5054 12.0784 11.1968 12.0784 10.875C12.0784 10.5532 12.2062 10.2446 12.4338 10.0171C12.6613 9.78957 12.9699 9.66174 13.2917 9.66174C13.6135 9.66174 13.9221 9.78957 14.1496 10.0171L17.7746 13.6421C17.8879 13.7544 17.9778 13.8881 18.0391 14.0353C18.1004 14.1826 18.132 14.3405 18.132 14.5C18.132 14.6595 18.1004 14.8175 18.0391 14.9647C17.9778 15.112 17.8879 15.2456 17.7746 15.3579Z" fill="#B6545A"/>
</svg>
