<svg width="29" height="29" viewBox="0 0 29 29" fill="none" xmlns="http://www.w3.org/2000/svg">
<path d="M14.5 2.41666C12.1101 2.41666 9.77395 3.12533 7.78685 4.45307C5.79976 5.7808 4.25101 7.66796 3.33645 9.8759C2.42189 12.0838 2.1826 14.5134 2.64884 16.8573C3.11508 19.2013 4.2659 21.3543 5.95579 23.0442C7.64567 24.7341 9.79872 25.8849 12.1427 26.3511C14.4866 26.8174 16.9161 26.5781 19.1241 25.6635C21.332 24.749 23.2192 23.2002 24.5469 21.2131C25.8747 19.226 26.5833 16.8898 26.5833 14.5C26.5833 12.9132 26.2708 11.3419 25.6635 9.8759C25.0563 8.40988 24.1662 7.07782 23.0442 5.95578C21.9222 4.83374 20.5901 3.94369 19.1241 3.33645C17.6581 2.7292 16.0868 2.41666 14.5 2.41666ZM17.7746 15.3579L14.1496 18.9829C14.0372 19.0962 13.9036 19.1861 13.7564 19.2474C13.6091 19.3087 13.4512 19.3403 13.2917 19.3403C13.1321 19.3403 12.9742 19.3087 12.827 19.2474C12.6797 19.1861 12.5461 19.0962 12.4337 18.9829C12.3205 18.8706 12.2306 18.7369 12.1693 18.5897C12.1079 18.4424 12.0763 18.2845 12.0763 18.125C12.0763 17.9655 12.1079 17.8075 12.1693 17.6603C12.2306 17.513 12.3205 17.3794 12.4337 17.2671L15.2129 14.5L12.4337 11.7329C12.2062 11.5054 12.0784 11.1968 12.0784 10.875C12.0784 10.5532 12.2062 10.2446 12.4337 10.0171C12.6613 9.78954 12.9699 9.66171 13.2917 9.66171C13.6134 9.66171 13.922 9.78954 14.1496 10.0171L17.7746 13.6421C17.8878 13.7544 17.9777 13.888 18.0391 14.0353C18.1004 14.1825 18.132 14.3405 18.132 14.5C18.132 14.6595 18.1004 14.8174 18.0391 14.9647C17.9777 15.1119 17.8878 15.2456 17.7746 15.3579Z" fill="#231F20"/>
</svg>
