<svg width="34" height="34" viewBox="0 0 34 34" fill="none" xmlns="http://www.w3.org/2000/svg">
<path d="M6.37498 7.08333H25.8921C26.9798 7.08333 27.6618 8.25843 27.1222 9.20286L23.4824 15.5724C22.978 16.4551 22.0392 17 21.0225 17H11.3333M11.3333 17L9.14633 20.4992C8.5566 21.4427 9.23496 22.6667 10.3477 22.6667H25.5M11.3333 17L5.74143 5.81622C5.26148 4.85633 4.28041 4.25 3.20721 4.25H2.83331M11.3333 28.3333C11.3333 29.1158 10.699 29.75 9.91665 29.75C9.13425 29.75 8.49998 29.1158 8.49998 28.3333C8.49998 27.5509 9.13425 26.9167 9.91665 26.9167C10.699 26.9167 11.3333 27.5509 11.3333 28.3333ZM25.5 28.3333C25.5 29.1158 24.8657 29.75 24.0833 29.75C23.3009 29.75 22.6666 29.1158 22.6666 28.3333C22.6666 27.5509 23.3009 26.9167 24.0833 26.9167C24.8657 26.9167 25.5 27.5509 25.5 28.3333Z" stroke="#313131" stroke-width="3" stroke-linecap="round" stroke-linejoin="round"/>
</svg>
