<svg width="43" height="43" viewBox="0 0 43 43" fill="none" xmlns="http://www.w3.org/2000/svg">
<path d="M16.9162 4.20794C17.266 3.8581 17.8333 3.8581 18.1831 4.20794L21.3997 7.42451L24.6076 4.21655C24.9575 3.86671 25.5247 3.86671 25.8745 4.21655C26.2244 4.5664 26.2244 5.1336 25.8745 5.48345L22.6666 8.69141L25.7845 11.8094C26.1343 12.1592 26.1343 12.7264 25.7845 13.0762C25.4347 13.4261 24.8674 13.4261 24.5176 13.0762L21.3997 9.9583L18.2731 13.0848C17.9233 13.4347 17.3561 13.4347 17.0062 13.0848C16.6564 12.735 16.6564 12.1678 17.0062 11.818L20.1328 8.69141L16.9162 5.47483C16.5664 5.12499 16.5664 4.55778 16.9162 4.20794Z" fill="#FFFCB5"/>
<path fill-rule="evenodd" clip-rule="evenodd" d="M21.3746 13.4835C21.5584 13.4222 21.7572 13.4222 21.941 13.4835L35.1798 17.8956C35.3577 17.9468 35.5197 18.0529 35.6389 18.206L39.225 22.809C39.4039 23.0384 39.4601 23.3404 39.3759 23.6188C39.3183 23.8094 39.1998 23.9727 39.0423 24.0863L25.247 28.6809L22.3645 24.981C22.1946 24.763 21.9335 24.6355 21.657 24.6358C21.3806 24.636 21.1197 24.7639 20.9502 24.9822L18.0833 28.675L4.24836 24.06C4.10808 23.9482 4.00263 23.7952 3.94931 23.6188C3.86512 23.3404 3.92135 23.0384 4.10012 22.809L7.62174 18.2888C7.72948 18.1129 7.89725 17.9751 8.1025 17.9067L21.3746 13.4835ZM32.0965 18.7566L21.6614 22.2343L11.2227 18.7553L21.6578 15.2776L32.0965 18.7566Z" fill="#9E9A25"/>
<path d="M25.2125 30.5808L35.8253 27.0461L35.8248 32.9333C35.8248 34.09 35.0846 35.1169 33.9872 35.4827L22.5537 39.2939V28.1391L24.2227 30.2814C24.456 30.5808 24.8525 30.7007 25.2125 30.5808Z" fill="#9E9A25"/>
<path d="M20.762 28.1463V39.2939L9.3284 35.4827C8.23102 35.1169 7.49081 34.09 7.49073 32.9333L7.49035 27.0302L18.1183 30.5753C18.479 30.6956 18.8763 30.5752 19.1094 30.2749L20.762 28.1463Z" fill="#9E9A25"/>
</svg>
