<svg width="25" height="25" viewBox="0 0 25 25" fill="none" xmlns="http://www.w3.org/2000/svg">
<path d="M12.0833 0C9.69348 0 7.35729 0.708675 5.3702 2.03641C3.3831 3.36414 1.83435 5.2513 0.919794 7.45924C0.00523552 9.66718 -0.234055 12.0967 0.232183 14.4407C0.698421 16.7846 1.84925 18.9377 3.53913 20.6275C5.22902 22.3174 7.38206 23.4683 9.726 23.9345C12.0699 24.4007 14.4995 24.1614 16.7074 23.2469C18.9154 22.3323 20.8025 20.7836 22.1303 18.7965C23.458 16.8094 24.1667 14.4732 24.1667 12.0833C24.1667 10.4965 23.8541 8.92526 23.2469 7.45924C22.6396 5.99322 21.7496 4.66117 20.6275 3.53913C19.5055 2.41708 18.1734 1.52703 16.7074 0.919789C15.2414 0.312545 13.6701 0 12.0833 0ZM15.3579 12.9412L11.7329 16.5662C11.6206 16.6795 11.4869 16.7694 11.3397 16.8307C11.1925 16.8921 11.0345 16.9237 10.875 16.9237C10.7155 16.9237 10.5576 16.8921 10.4103 16.8307C10.2631 16.7694 10.1294 16.6795 10.0171 16.5662C9.90383 16.4539 9.81394 16.3203 9.75259 16.173C9.69125 16.0258 9.65967 15.8678 9.65967 15.7083C9.65967 15.5488 9.69125 15.3909 9.75259 15.2436C9.81394 15.0964 9.90383 14.9627 10.0171 14.8504L12.7963 12.0833L10.0171 9.31625C9.78955 9.08872 9.66173 8.78011 9.66173 8.45833C9.66173 8.13655 9.78955 7.82795 10.0171 7.60042C10.2446 7.37288 10.5532 7.24506 10.875 7.24506C11.1968 7.24506 11.5054 7.37288 11.7329 7.60042L15.3579 11.2254C15.4712 11.3377 15.5611 11.4714 15.6224 11.6186C15.6838 11.7659 15.7153 11.9238 15.7153 12.0833C15.7153 12.2428 15.6838 12.4008 15.6224 12.548C15.5611 12.6953 15.4712 12.8289 15.3579 12.9412Z" fill="#231F20"/>
</svg>
