<svg width="17" height="19" viewBox="0 0 17 19" fill="none" xmlns="http://www.w3.org/2000/svg">
<path d="M0.286095 4.5505C-0.0878918 4.90444 -0.096316 5.48649 0.267282 5.85054C0.630881 6.21459 1.22881 6.22279 1.6028 5.86885L0.286095 4.5505ZM5.47778 0.919374H6.42222C6.42222 0.54988 6.19493 0.216303 5.84533 0.0725045C5.49569 -0.0712943 5.09158 0.0026461 4.81943 0.260199L5.47778 0.919374ZM4.53334 18.0806C4.53334 18.5883 4.95618 18.9999 5.47778 18.9999C5.99937 18.9999 6.42222 18.5883 6.42222 18.0806H4.53334ZM16.7139 14.4494C17.0879 14.0955 17.0963 13.5135 16.7327 13.1494C16.3691 12.7854 15.7712 12.7772 15.3972 13.1312L16.7139 14.4494ZM11.5222 18.0806H10.5778C10.5778 18.4501 10.8051 18.7837 11.1546 18.9275C11.5043 19.0713 11.9084 18.9974 12.1806 18.7397L11.5222 18.0806ZM12.4667 0.919374C12.4667 0.411634 12.0438 2.26013e-05 11.5222 2.26013e-05C11.0006 2.26013e-05 10.5778 0.411634 10.5778 0.919374H12.4667ZM1.6028 5.86885L6.13612 1.57855L4.81943 0.260199L0.286095 4.5505L1.6028 5.86885ZM4.53334 0.919374V18.0806H6.42222V0.919374H4.53334ZM15.3972 13.1312L10.8639 17.4215L12.1806 18.7397L16.7139 14.4494L15.3972 13.1312ZM12.4667 18.0806V0.919374H10.5778V18.0806H12.4667Z" fill="#606060"/>
</svg>
