<svg width="23" height="23" viewBox="0 0 23 23" fill="none" xmlns="http://www.w3.org/2000/svg">
<path d="M2 3.68889C2 3.09772 2 2.80214 2.11504 2.57634C2.21625 2.37773 2.37773 2.21625 2.57634 2.11504C2.80214 2 3.09772 2 3.68889 2H19.3111C19.9023 2 20.1979 2 20.4237 2.11504C20.6223 2.21625 20.7837 2.37773 20.8849 2.57634C21 2.80214 21 3.09772 21 3.68889V5.52266C21 5.78084 21 5.90993 20.9709 6.03141C20.945 6.13912 20.9024 6.24208 20.8444 6.33652C20.7792 6.44304 20.6879 6.53433 20.5054 6.71689L14.1057 13.1165C13.9232 13.299 13.8319 13.3903 13.7667 13.4968C13.7088 13.5913 13.6661 13.6942 13.6402 13.802C13.6111 13.9235 13.6111 14.0525 13.6111 14.3106V16.7778L9.38889 21V14.3106C9.38889 14.0525 9.38889 13.9235 9.35972 13.802C9.33386 13.6942 9.29122 13.5913 9.23334 13.4968C9.16807 13.3903 9.07678 13.299 8.89422 13.1165L2.49467 6.71689C2.31211 6.53433 2.22082 6.44304 2.15555 6.33652C2.09767 6.24208 2.05503 6.13912 2.02917 6.03141C2 5.90993 2 5.78084 2 5.52266V3.68889Z" stroke="#606060" stroke-width="2.3" stroke-linecap="round" stroke-linejoin="round"/>
</svg>
