<svg width="28" height="27" viewBox="0 0 28 27" fill="none" xmlns="http://www.w3.org/2000/svg">
<path fill-rule="evenodd" clip-rule="evenodd" d="M3.11111 1.6875C3.11111 0.755527 2.41466 0 1.55556 0C0.696453 0 0 0.755527 0 1.6875V5.06221C0 5.06203 0 5.0624 0 5.06221V25.3125C0 26.2445 0.696453 27 1.55556 27H26.4444C27.3036 27 28 26.2445 28 25.3125C28 24.3805 27.3036 23.625 26.4444 23.625H3.11111V9.13648L8.23338 14.6932C8.84087 15.3522 9.82579 15.3522 10.4333 14.6932L15.5556 9.13648L22.689 16.875H18.6667C17.8075 16.875 17.1111 17.6305 17.1111 18.5625C17.1111 19.4945 17.8075 20.25 18.6667 20.25H26.4444C27.3036 20.25 28 19.4945 28 18.5625V10.125C28 9.19303 27.3036 8.4375 26.4444 8.4375C25.5853 8.4375 24.8889 9.19303 24.8889 10.125V14.4885L16.6555 5.55675C16.048 4.89775 15.0631 4.89775 14.4556 5.55675L9.33333 11.1135L3.11111 4.36352V1.6875Z" fill="#3881A9"/>
</svg>
