<svg width="37" height="38" viewBox="0 0 37 38" fill="none" xmlns="http://www.w3.org/2000/svg">
<path d="M12.6479 1.3667C8.17899 2.89743 4.36758 6.24654 2.25127 10.4689C1.51159 11.9277 0.977371 13.479 0.658897 15.0816C-0.152698 19.0677 0.412337 23.3106 2.25127 26.9473C3.44298 29.3205 5.15862 31.4265 7.23384 33.0703C9.19605 34.6318 11.4767 35.7824 13.9012 36.4297C16.9524 37.2515 20.2091 37.231 23.2911 36.5324C26.0752 35.8954 28.7051 34.5599 30.8009 32.6285C33.0199 30.5841 34.602 27.9028 35.4445 25.016C36.3588 21.862 36.4821 18.5027 35.9068 15.2768C30.1537 15.2768 24.4006 15.2768 18.6373 15.2768C18.6373 17.6602 18.6373 20.0539 18.6373 22.4373C21.9658 22.4373 25.3047 22.4373 28.6332 22.4373C28.2428 24.7283 26.8868 26.8138 24.9554 28.1082C23.7431 28.9198 22.3562 29.454 20.9179 29.7006C19.4694 29.9472 17.9798 29.978 16.5415 29.6903C15.0724 29.4027 13.6752 28.7863 12.4527 27.9233C10.5008 26.557 9.01113 24.5434 8.2509 22.2935C7.47013 20.0026 7.45985 17.4445 8.2509 15.1535C8.79539 13.5406 9.70972 12.0407 10.9117 10.8285C12.3911 9.308 14.3122 8.2293 16.3874 7.78754C18.1647 7.40743 20.0344 7.47934 21.7706 8.00329C23.25 8.45531 24.6061 9.25663 25.7259 10.3251C26.8559 9.20527 27.9757 8.0752 29.1058 6.9554C29.6914 6.34928 30.3181 5.77397 30.8934 5.14729C29.188 3.5652 27.1744 2.2913 24.9862 1.48998C21.0618 0.0208904 16.6134 -0.00993004 12.6479 1.3667Z" fill="white"/>
<path d="M12.6483 1.3666C16.6138 -0.010026 21.0622 0.0207946 25.0072 1.47961C27.1954 2.28093 29.1987 3.55483 30.9143 5.13692C30.339 5.75332 29.7226 6.3389 29.1268 6.94503C27.9967 8.06483 26.8769 9.1949 25.7468 10.3147C24.627 9.24626 23.271 8.43467 21.7916 7.99291C20.0554 7.46897 18.1857 7.39706 16.4084 7.77717C14.3331 8.21893 12.412 9.3079 10.9327 10.8181C9.73069 12.0303 8.81636 13.5302 8.27187 15.1432C6.26857 13.5919 4.26527 12.0303 2.26196 10.4791C4.368 6.24644 8.17941 2.89733 12.6483 1.3666Z" fill="#E94435"/>
<path d="M0.658897 15.0815C0.977371 13.4788 1.52186 11.9276 2.25127 10.4688C4.25457 12.02 6.25787 13.5816 8.26118 15.1329C7.47013 17.4238 7.4804 19.9819 8.26118 22.2728C6.25787 23.8241 4.25457 25.3857 2.25127 26.9369C0.412337 23.3207 -0.152698 19.0675 0.658897 15.0815Z" fill="#F8BB15"/>
<path d="M18.6478 15.2664C24.4008 15.2664 30.1539 15.2664 35.9173 15.2664C36.4926 18.4923 36.3693 21.8516 35.455 25.0056C34.6125 27.8924 33.0304 30.584 30.8114 32.6181C28.8697 31.1079 26.9178 29.5977 24.9864 28.0876C26.9178 26.8034 28.2739 24.7076 28.6643 22.4167C25.3357 22.4167 21.9969 22.4167 18.6683 22.4167C18.6375 20.0435 18.6478 17.6601 18.6478 15.2664Z" fill="#547DBE"/>
<path d="M2.25134 26.9472C4.25465 25.396 6.25795 23.8344 8.26125 22.2831C9.02148 24.5433 10.5111 26.5466 12.4631 27.9129C13.6856 28.7759 15.0828 29.382 16.5518 29.68C17.9901 29.9676 19.49 29.9368 20.9283 29.6902C22.3666 29.4437 23.7535 28.9095 24.9657 28.0979C26.9074 29.608 28.8593 31.1182 30.7907 32.6284C28.6949 34.5701 26.065 35.8953 23.2809 36.5323C20.2092 37.2309 16.9525 37.2514 13.891 36.4295C11.4665 35.7823 9.18585 34.6317 7.22364 33.0702C5.1587 31.4162 3.44305 29.3101 2.25134 26.9472Z" fill="#34A751"/>
</svg>
